<?xml version="1.0" encoding="utf-8" standalone="no"?>
<!DOCTYPE svg PUBLIC "-//W3C//DTD SVG 1.1//EN"
  "http://www.w3.org/Graphics/SVG/1.1/DTD/svg11.dtd">
<svg xmlns:xlink="http://www.w3.org/1999/xlink" width="576pt" height="360pt" viewBox="0 0 576 360" xmlns="http://www.w3.org/2000/svg" version="1.1">
 <metadata>
  <rdf:RDF xmlns:dc="http://purl.org/dc/elements/1.1/" xmlns:cc="http://creativecommons.org/ns#" xmlns:rdf="http://www.w3.org/1999/02/22-rdf-syntax-ns#">
   <cc:Work>
    <dc:type rdf:resource="http://purl.org/dc/dcmitype/StillImage"/>
    <dc:date>2022-10-06T14:02:45.715981</dc:date>
    <dc:format>image/svg+xml</dc:format>
    <dc:creator>
     <cc:Agent>
      <dc:title>Matplotlib v3.5.1, https://matplotlib.org/</dc:title>
     </cc:Agent>
    </dc:creator>
   </cc:Work>
  </rdf:RDF>
 </metadata>
 <defs>
  <style type="text/css">*{stroke-linejoin: round; stroke-linecap: butt}</style>
 </defs>
 <g id="figure_1">
  <g id="patch_1">
   <path d="M 0 360 
L 576 360 
L 576 0 
L 0 0 
L 0 360 
z
" style="fill: none"/>
  </g>
  <g id="axes_1">
   <g id="patch_2">
    <path d="M 62.05 306.2 
L 565.2 306.2 
L 565.2 31.8 
L 62.05 31.8 
z
" style="fill: #ffffff"/>
   </g>
   <g id="matplotlib.axis_1">
    <g id="xtick_1">
     <g id="line2d_1">
      <path d="M 124.695158 306.2 
L 124.695158 31.8 
" clip-path="url(#paaee6fe93f)" style="fill: none; stroke-dasharray: 2.59,1.12; stroke-dashoffset: 0; stroke: #b0b0b0; stroke-width: 0.7"/>
     </g>
     <g id="line2d_2">
      <defs>
       <path id="mf8c061be17" d="M 0 0 
L 0 3.5 
" style="stroke: #000000; stroke-width: 0.8"/>
      </defs>
      <g>
       <use xlink:href="#mf8c061be17" x="124.695158" y="306.2" style="stroke: #000000; stroke-width: 0.8"/>
      </g>
     </g>
     <g id="text_1">
      <!-- 1995 -->
      <g transform="translate(106.880158 323.837812)scale(0.14 -0.14)">
       <defs>
        <path id="DejaVuSans-31" d="M 794 531 
L 1825 531 
L 1825 4091 
L 703 3866 
L 703 4441 
L 1819 4666 
L 2450 4666 
L 2450 531 
L 3481 531 
L 3481 0 
L 794 0 
L 794 531 
z
" transform="scale(0.015625)"/>
        <path id="DejaVuSans-39" d="M 703 97 
L 703 672 
Q 941 559 1184 500 
Q 1428 441 1663 441 
Q 2288 441 2617 861 
Q 2947 1281 2994 2138 
Q 2813 1869 2534 1725 
Q 2256 1581 1919 1581 
Q 1219 1581 811 2004 
Q 403 2428 403 3163 
Q 403 3881 828 4315 
Q 1253 4750 1959 4750 
Q 2769 4750 3195 4129 
Q 3622 3509 3622 2328 
Q 3622 1225 3098 567 
Q 2575 -91 1691 -91 
Q 1453 -91 1209 -44 
Q 966 3 703 97 
z
M 1959 2075 
Q 2384 2075 2632 2365 
Q 2881 2656 2881 3163 
Q 2881 3666 2632 3958 
Q 2384 4250 1959 4250 
Q 1534 4250 1286 3958 
Q 1038 3666 1038 3163 
Q 1038 2656 1286 2365 
Q 1534 2075 1959 2075 
z
" transform="scale(0.015625)"/>
        <path id="DejaVuSans-35" d="M 691 4666 
L 3169 4666 
L 3169 4134 
L 1269 4134 
L 1269 2991 
Q 1406 3038 1543 3061 
Q 1681 3084 1819 3084 
Q 2600 3084 3056 2656 
Q 3513 2228 3513 1497 
Q 3513 744 3044 326 
Q 2575 -91 1722 -91 
Q 1428 -91 1123 -41 
Q 819 9 494 109 
L 494 744 
Q 775 591 1075 516 
Q 1375 441 1709 441 
Q 2250 441 2565 725 
Q 2881 1009 2881 1497 
Q 2881 1984 2565 2268 
Q 2250 2553 1709 2553 
Q 1456 2553 1204 2497 
Q 953 2441 691 2322 
L 691 4666 
z
" transform="scale(0.015625)"/>
       </defs>
       <use xlink:href="#DejaVuSans-31"/>
       <use xlink:href="#DejaVuSans-39" x="63.623047"/>
       <use xlink:href="#DejaVuSans-39" x="127.246094"/>
       <use xlink:href="#DejaVuSans-35" x="190.869141"/>
      </g>
     </g>
    </g>
    <g id="xtick_2">
     <g id="line2d_3">
      <path d="M 224.131917 306.2 
L 224.131917 31.8 
" clip-path="url(#paaee6fe93f)" style="fill: none; stroke-dasharray: 2.59,1.12; stroke-dashoffset: 0; stroke: #b0b0b0; stroke-width: 0.7"/>
     </g>
     <g id="line2d_4">
      <g>
       <use xlink:href="#mf8c061be17" x="224.131917" y="306.2" style="stroke: #000000; stroke-width: 0.8"/>
      </g>
     </g>
     <g id="text_2">
      <!-- 2000 -->
      <g transform="translate(206.316917 323.837812)scale(0.14 -0.14)">
       <defs>
        <path id="DejaVuSans-32" d="M 1228 531 
L 3431 531 
L 3431 0 
L 469 0 
L 469 531 
Q 828 903 1448 1529 
Q 2069 2156 2228 2338 
Q 2531 2678 2651 2914 
Q 2772 3150 2772 3378 
Q 2772 3750 2511 3984 
Q 2250 4219 1831 4219 
Q 1534 4219 1204 4116 
Q 875 4013 500 3803 
L 500 4441 
Q 881 4594 1212 4672 
Q 1544 4750 1819 4750 
Q 2544 4750 2975 4387 
Q 3406 4025 3406 3419 
Q 3406 3131 3298 2873 
Q 3191 2616 2906 2266 
Q 2828 2175 2409 1742 
Q 1991 1309 1228 531 
z
" transform="scale(0.015625)"/>
        <path id="DejaVuSans-30" d="M 2034 4250 
Q 1547 4250 1301 3770 
Q 1056 3291 1056 2328 
Q 1056 1369 1301 889 
Q 1547 409 2034 409 
Q 2525 409 2770 889 
Q 3016 1369 3016 2328 
Q 3016 3291 2770 3770 
Q 2525 4250 2034 4250 
z
M 2034 4750 
Q 2819 4750 3233 4129 
Q 3647 3509 3647 2328 
Q 3647 1150 3233 529 
Q 2819 -91 2034 -91 
Q 1250 -91 836 529 
Q 422 1150 422 2328 
Q 422 3509 836 4129 
Q 1250 4750 2034 4750 
z
" transform="scale(0.015625)"/>
       </defs>
       <use xlink:href="#DejaVuSans-32"/>
       <use xlink:href="#DejaVuSans-30" x="63.623047"/>
       <use xlink:href="#DejaVuSans-30" x="127.246094"/>
       <use xlink:href="#DejaVuSans-30" x="190.869141"/>
      </g>
     </g>
    </g>
    <g id="xtick_3">
     <g id="line2d_5">
      <path d="M 323.568676 306.2 
L 323.568676 31.8 
" clip-path="url(#paaee6fe93f)" style="fill: none; stroke-dasharray: 2.59,1.12; stroke-dashoffset: 0; stroke: #b0b0b0; stroke-width: 0.7"/>
     </g>
     <g id="line2d_6">
      <g>
       <use xlink:href="#mf8c061be17" x="323.568676" y="306.2" style="stroke: #000000; stroke-width: 0.8"/>
      </g>
     </g>
     <g id="text_3">
      <!-- 2005 -->
      <g transform="translate(305.753676 323.837812)scale(0.14 -0.14)">
       <use xlink:href="#DejaVuSans-32"/>
       <use xlink:href="#DejaVuSans-30" x="63.623047"/>
       <use xlink:href="#DejaVuSans-30" x="127.246094"/>
       <use xlink:href="#DejaVuSans-35" x="190.869141"/>
      </g>
     </g>
    </g>
    <g id="xtick_4">
     <g id="line2d_7">
      <path d="M 423.005435 306.2 
L 423.005435 31.8 
" clip-path="url(#paaee6fe93f)" style="fill: none; stroke-dasharray: 2.59,1.12; stroke-dashoffset: 0; stroke: #b0b0b0; stroke-width: 0.7"/>
     </g>
     <g id="line2d_8">
      <g>
       <use xlink:href="#mf8c061be17" x="423.005435" y="306.2" style="stroke: #000000; stroke-width: 0.8"/>
      </g>
     </g>
     <g id="text_4">
      <!-- 2010 -->
      <g transform="translate(405.190435 323.837812)scale(0.14 -0.14)">
       <use xlink:href="#DejaVuSans-32"/>
       <use xlink:href="#DejaVuSans-30" x="63.623047"/>
       <use xlink:href="#DejaVuSans-31" x="127.246094"/>
       <use xlink:href="#DejaVuSans-30" x="190.869141"/>
      </g>
     </g>
    </g>
    <g id="xtick_5">
     <g id="line2d_9">
      <path d="M 522.442194 306.2 
L 522.442194 31.8 
" clip-path="url(#paaee6fe93f)" style="fill: none; stroke-dasharray: 2.59,1.12; stroke-dashoffset: 0; stroke: #b0b0b0; stroke-width: 0.7"/>
     </g>
     <g id="line2d_10">
      <g>
       <use xlink:href="#mf8c061be17" x="522.442194" y="306.2" style="stroke: #000000; stroke-width: 0.8"/>
      </g>
     </g>
     <g id="text_5">
      <!-- 2015 -->
      <g transform="translate(504.627194 323.837812)scale(0.14 -0.14)">
       <use xlink:href="#DejaVuSans-32"/>
       <use xlink:href="#DejaVuSans-30" x="63.623047"/>
       <use xlink:href="#DejaVuSans-31" x="127.246094"/>
       <use xlink:href="#DejaVuSans-35" x="190.869141"/>
      </g>
     </g>
    </g>
    <g id="text_6">
     <!-- Year -->
     <g transform="translate(294.5675 344.426562)scale(0.18 -0.18)">
      <defs>
       <path id="DejaVuSans-59" d="M -13 4666 
L 666 4666 
L 1959 2747 
L 3244 4666 
L 3922 4666 
L 2272 2222 
L 2272 0 
L 1638 0 
L 1638 2222 
L -13 4666 
z
" transform="scale(0.015625)"/>
       <path id="DejaVuSans-65" d="M 3597 1894 
L 3597 1613 
L 953 1613 
Q 991 1019 1311 708 
Q 1631 397 2203 397 
Q 2534 397 2845 478 
Q 3156 559 3463 722 
L 3463 178 
Q 3153 47 2828 -22 
Q 2503 -91 2169 -91 
Q 1331 -91 842 396 
Q 353 884 353 1716 
Q 353 2575 817 3079 
Q 1281 3584 2069 3584 
Q 2775 3584 3186 3129 
Q 3597 2675 3597 1894 
z
M 3022 2063 
Q 3016 2534 2758 2815 
Q 2500 3097 2075 3097 
Q 1594 3097 1305 2825 
Q 1016 2553 972 2059 
L 3022 2063 
z
" transform="scale(0.015625)"/>
       <path id="DejaVuSans-61" d="M 2194 1759 
Q 1497 1759 1228 1600 
Q 959 1441 959 1056 
Q 959 750 1161 570 
Q 1363 391 1709 391 
Q 2188 391 2477 730 
Q 2766 1069 2766 1631 
L 2766 1759 
L 2194 1759 
z
M 3341 1997 
L 3341 0 
L 2766 0 
L 2766 531 
Q 2569 213 2275 61 
Q 1981 -91 1556 -91 
Q 1019 -91 701 211 
Q 384 513 384 1019 
Q 384 1609 779 1909 
Q 1175 2209 1959 2209 
L 2766 2209 
L 2766 2266 
Q 2766 2663 2505 2880 
Q 2244 3097 1772 3097 
Q 1472 3097 1187 3025 
Q 903 2953 641 2809 
L 641 3341 
Q 956 3463 1253 3523 
Q 1550 3584 1831 3584 
Q 2591 3584 2966 3190 
Q 3341 2797 3341 1997 
z
" transform="scale(0.015625)"/>
       <path id="DejaVuSans-72" d="M 2631 2963 
Q 2534 3019 2420 3045 
Q 2306 3072 2169 3072 
Q 1681 3072 1420 2755 
Q 1159 2438 1159 1844 
L 1159 0 
L 581 0 
L 581 3500 
L 1159 3500 
L 1159 2956 
Q 1341 3275 1631 3429 
Q 1922 3584 2338 3584 
Q 2397 3584 2469 3576 
Q 2541 3569 2628 3553 
L 2631 2963 
z
" transform="scale(0.015625)"/>
      </defs>
      <use xlink:href="#DejaVuSans-59"/>
      <use xlink:href="#DejaVuSans-65" x="47.833984"/>
      <use xlink:href="#DejaVuSans-61" x="109.357422"/>
      <use xlink:href="#DejaVuSans-72" x="170.636719"/>
     </g>
    </g>
   </g>
   <g id="matplotlib.axis_2">
    <g id="ytick_1">
     <g id="line2d_11">
      <path d="M 62.05 286.6 
L 565.2 286.6 
" clip-path="url(#paaee6fe93f)" style="fill: none; stroke-dasharray: 2.59,1.12; stroke-dashoffset: 0; stroke: #b0b0b0; stroke-width: 0.7"/>
     </g>
     <g id="line2d_12">
      <defs>
       <path id="ma85869d156" d="M 0 0 
L -3.5 0 
" style="stroke: #000000; stroke-width: 0.8"/>
      </defs>
      <g>
       <use xlink:href="#ma85869d156" x="62.05" y="286.6" style="stroke: #000000; stroke-width: 0.8"/>
      </g>
     </g>
     <g id="text_7">
      <!-- 2.0 -->
      <g transform="translate(32.785625 291.918906)scale(0.14 -0.14)">
       <defs>
        <path id="DejaVuSans-2e" d="M 684 794 
L 1344 794 
L 1344 0 
L 684 0 
L 684 794 
z
" transform="scale(0.015625)"/>
       </defs>
       <use xlink:href="#DejaVuSans-32"/>
       <use xlink:href="#DejaVuSans-2e" x="63.623047"/>
       <use xlink:href="#DejaVuSans-30" x="95.410156"/>
      </g>
     </g>
    </g>
    <g id="ytick_2">
     <g id="line2d_13">
      <path d="M 62.05 247.4 
L 565.2 247.4 
" clip-path="url(#paaee6fe93f)" style="fill: none; stroke-dasharray: 2.59,1.12; stroke-dashoffset: 0; stroke: #b0b0b0; stroke-width: 0.7"/>
     </g>
     <g id="line2d_14">
      <g>
       <use xlink:href="#ma85869d156" x="62.05" y="247.4" style="stroke: #000000; stroke-width: 0.8"/>
      </g>
     </g>
     <g id="text_8">
      <!-- 2.2 -->
      <g transform="translate(32.785625 252.718906)scale(0.14 -0.14)">
       <use xlink:href="#DejaVuSans-32"/>
       <use xlink:href="#DejaVuSans-2e" x="63.623047"/>
       <use xlink:href="#DejaVuSans-32" x="95.410156"/>
      </g>
     </g>
    </g>
    <g id="ytick_3">
     <g id="line2d_15">
      <path d="M 62.05 208.2 
L 565.2 208.2 
" clip-path="url(#paaee6fe93f)" style="fill: none; stroke-dasharray: 2.59,1.12; stroke-dashoffset: 0; stroke: #b0b0b0; stroke-width: 0.7"/>
     </g>
     <g id="line2d_16">
      <g>
       <use xlink:href="#ma85869d156" x="62.05" y="208.2" style="stroke: #000000; stroke-width: 0.8"/>
      </g>
     </g>
     <g id="text_9">
      <!-- 2.4 -->
      <g transform="translate(32.785625 213.518906)scale(0.14 -0.14)">
       <defs>
        <path id="DejaVuSans-34" d="M 2419 4116 
L 825 1625 
L 2419 1625 
L 2419 4116 
z
M 2253 4666 
L 3047 4666 
L 3047 1625 
L 3713 1625 
L 3713 1100 
L 3047 1100 
L 3047 0 
L 2419 0 
L 2419 1100 
L 313 1100 
L 313 1709 
L 2253 4666 
z
" transform="scale(0.015625)"/>
       </defs>
       <use xlink:href="#DejaVuSans-32"/>
       <use xlink:href="#DejaVuSans-2e" x="63.623047"/>
       <use xlink:href="#DejaVuSans-34" x="95.410156"/>
      </g>
     </g>
    </g>
    <g id="ytick_4">
     <g id="line2d_17">
      <path d="M 62.05 169 
L 565.2 169 
" clip-path="url(#paaee6fe93f)" style="fill: none; stroke-dasharray: 2.59,1.12; stroke-dashoffset: 0; stroke: #b0b0b0; stroke-width: 0.7"/>
     </g>
     <g id="line2d_18">
      <g>
       <use xlink:href="#ma85869d156" x="62.05" y="169" style="stroke: #000000; stroke-width: 0.8"/>
      </g>
     </g>
     <g id="text_10">
      <!-- 2.6 -->
      <g transform="translate(32.785625 174.318906)scale(0.14 -0.14)">
       <defs>
        <path id="DejaVuSans-36" d="M 2113 2584 
Q 1688 2584 1439 2293 
Q 1191 2003 1191 1497 
Q 1191 994 1439 701 
Q 1688 409 2113 409 
Q 2538 409 2786 701 
Q 3034 994 3034 1497 
Q 3034 2003 2786 2293 
Q 2538 2584 2113 2584 
z
M 3366 4563 
L 3366 3988 
Q 3128 4100 2886 4159 
Q 2644 4219 2406 4219 
Q 1781 4219 1451 3797 
Q 1122 3375 1075 2522 
Q 1259 2794 1537 2939 
Q 1816 3084 2150 3084 
Q 2853 3084 3261 2657 
Q 3669 2231 3669 1497 
Q 3669 778 3244 343 
Q 2819 -91 2113 -91 
Q 1303 -91 875 529 
Q 447 1150 447 2328 
Q 447 3434 972 4092 
Q 1497 4750 2381 4750 
Q 2619 4750 2861 4703 
Q 3103 4656 3366 4563 
z
" transform="scale(0.015625)"/>
       </defs>
       <use xlink:href="#DejaVuSans-32"/>
       <use xlink:href="#DejaVuSans-2e" x="63.623047"/>
       <use xlink:href="#DejaVuSans-36" x="95.410156"/>
      </g>
     </g>
    </g>
    <g id="ytick_5">
     <g id="line2d_19">
      <path d="M 62.05 129.8 
L 565.2 129.8 
" clip-path="url(#paaee6fe93f)" style="fill: none; stroke-dasharray: 2.59,1.12; stroke-dashoffset: 0; stroke: #b0b0b0; stroke-width: 0.7"/>
     </g>
     <g id="line2d_20">
      <g>
       <use xlink:href="#ma85869d156" x="62.05" y="129.8" style="stroke: #000000; stroke-width: 0.8"/>
      </g>
     </g>
     <g id="text_11">
      <!-- 2.8 -->
      <g transform="translate(32.785625 135.118906)scale(0.14 -0.14)">
       <defs>
        <path id="DejaVuSans-38" d="M 2034 2216 
Q 1584 2216 1326 1975 
Q 1069 1734 1069 1313 
Q 1069 891 1326 650 
Q 1584 409 2034 409 
Q 2484 409 2743 651 
Q 3003 894 3003 1313 
Q 3003 1734 2745 1975 
Q 2488 2216 2034 2216 
z
M 1403 2484 
Q 997 2584 770 2862 
Q 544 3141 544 3541 
Q 544 4100 942 4425 
Q 1341 4750 2034 4750 
Q 2731 4750 3128 4425 
Q 3525 4100 3525 3541 
Q 3525 3141 3298 2862 
Q 3072 2584 2669 2484 
Q 3125 2378 3379 2068 
Q 3634 1759 3634 1313 
Q 3634 634 3220 271 
Q 2806 -91 2034 -91 
Q 1263 -91 848 271 
Q 434 634 434 1313 
Q 434 1759 690 2068 
Q 947 2378 1403 2484 
z
M 1172 3481 
Q 1172 3119 1398 2916 
Q 1625 2713 2034 2713 
Q 2441 2713 2670 2916 
Q 2900 3119 2900 3481 
Q 2900 3844 2670 4047 
Q 2441 4250 2034 4250 
Q 1625 4250 1398 4047 
Q 1172 3844 1172 3481 
z
" transform="scale(0.015625)"/>
       </defs>
       <use xlink:href="#DejaVuSans-32"/>
       <use xlink:href="#DejaVuSans-2e" x="63.623047"/>
       <use xlink:href="#DejaVuSans-38" x="95.410156"/>
      </g>
     </g>
    </g>
    <g id="ytick_6">
     <g id="line2d_21">
      <path d="M 62.05 90.6 
L 565.2 90.6 
" clip-path="url(#paaee6fe93f)" style="fill: none; stroke-dasharray: 2.59,1.12; stroke-dashoffset: 0; stroke: #b0b0b0; stroke-width: 0.7"/>
     </g>
     <g id="line2d_22">
      <g>
       <use xlink:href="#ma85869d156" x="62.05" y="90.6" style="stroke: #000000; stroke-width: 0.8"/>
      </g>
     </g>
     <g id="text_12">
      <!-- 3.0 -->
      <g transform="translate(32.785625 95.918906)scale(0.14 -0.14)">
       <defs>
        <path id="DejaVuSans-33" d="M 2597 2516 
Q 3050 2419 3304 2112 
Q 3559 1806 3559 1356 
Q 3559 666 3084 287 
Q 2609 -91 1734 -91 
Q 1441 -91 1130 -33 
Q 819 25 488 141 
L 488 750 
Q 750 597 1062 519 
Q 1375 441 1716 441 
Q 2309 441 2620 675 
Q 2931 909 2931 1356 
Q 2931 1769 2642 2001 
Q 2353 2234 1838 2234 
L 1294 2234 
L 1294 2753 
L 1863 2753 
Q 2328 2753 2575 2939 
Q 2822 3125 2822 3475 
Q 2822 3834 2567 4026 
Q 2313 4219 1838 4219 
Q 1578 4219 1281 4162 
Q 984 4106 628 3988 
L 628 4550 
Q 988 4650 1302 4700 
Q 1616 4750 1894 4750 
Q 2613 4750 3031 4423 
Q 3450 4097 3450 3541 
Q 3450 3153 3228 2886 
Q 3006 2619 2597 2516 
z
" transform="scale(0.015625)"/>
       </defs>
       <use xlink:href="#DejaVuSans-33"/>
       <use xlink:href="#DejaVuSans-2e" x="63.623047"/>
       <use xlink:href="#DejaVuSans-30" x="95.410156"/>
      </g>
     </g>
    </g>
    <g id="ytick_7">
     <g id="line2d_23">
      <path d="M 62.05 51.4 
L 565.2 51.4 
" clip-path="url(#paaee6fe93f)" style="fill: none; stroke-dasharray: 2.59,1.12; stroke-dashoffset: 0; stroke: #b0b0b0; stroke-width: 0.7"/>
     </g>
     <g id="line2d_24">
      <g>
       <use xlink:href="#ma85869d156" x="62.05" y="51.4" style="stroke: #000000; stroke-width: 0.8"/>
      </g>
     </g>
     <g id="text_13">
      <!-- 3.2 -->
      <g transform="translate(32.785625 56.718906)scale(0.14 -0.14)">
       <use xlink:href="#DejaVuSans-33"/>
       <use xlink:href="#DejaVuSans-2e" x="63.623047"/>
       <use xlink:href="#DejaVuSans-32" x="95.410156"/>
      </g>
     </g>
    </g>
    <g id="text_14">
     <!-- Yield [t/ha] -->
     <g transform="translate(25.042188 218.085156)rotate(-90)scale(0.18 -0.18)">
      <defs>
       <path id="DejaVuSans-69" d="M 603 3500 
L 1178 3500 
L 1178 0 
L 603 0 
L 603 3500 
z
M 603 4863 
L 1178 4863 
L 1178 4134 
L 603 4134 
L 603 4863 
z
" transform="scale(0.015625)"/>
       <path id="DejaVuSans-6c" d="M 603 4863 
L 1178 4863 
L 1178 0 
L 603 0 
L 603 4863 
z
" transform="scale(0.015625)"/>
       <path id="DejaVuSans-64" d="M 2906 2969 
L 2906 4863 
L 3481 4863 
L 3481 0 
L 2906 0 
L 2906 525 
Q 2725 213 2448 61 
Q 2172 -91 1784 -91 
Q 1150 -91 751 415 
Q 353 922 353 1747 
Q 353 2572 751 3078 
Q 1150 3584 1784 3584 
Q 2172 3584 2448 3432 
Q 2725 3281 2906 2969 
z
M 947 1747 
Q 947 1113 1208 752 
Q 1469 391 1925 391 
Q 2381 391 2643 752 
Q 2906 1113 2906 1747 
Q 2906 2381 2643 2742 
Q 2381 3103 1925 3103 
Q 1469 3103 1208 2742 
Q 947 2381 947 1747 
z
" transform="scale(0.015625)"/>
       <path id="DejaVuSans-20" transform="scale(0.015625)"/>
       <path id="DejaVuSans-5b" d="M 550 4863 
L 1875 4863 
L 1875 4416 
L 1125 4416 
L 1125 -397 
L 1875 -397 
L 1875 -844 
L 550 -844 
L 550 4863 
z
" transform="scale(0.015625)"/>
       <path id="DejaVuSans-74" d="M 1172 4494 
L 1172 3500 
L 2356 3500 
L 2356 3053 
L 1172 3053 
L 1172 1153 
Q 1172 725 1289 603 
Q 1406 481 1766 481 
L 2356 481 
L 2356 0 
L 1766 0 
Q 1100 0 847 248 
Q 594 497 594 1153 
L 594 3053 
L 172 3053 
L 172 3500 
L 594 3500 
L 594 4494 
L 1172 4494 
z
" transform="scale(0.015625)"/>
       <path id="DejaVuSans-2f" d="M 1625 4666 
L 2156 4666 
L 531 -594 
L 0 -594 
L 1625 4666 
z
" transform="scale(0.015625)"/>
       <path id="DejaVuSans-68" d="M 3513 2113 
L 3513 0 
L 2938 0 
L 2938 2094 
Q 2938 2591 2744 2837 
Q 2550 3084 2163 3084 
Q 1697 3084 1428 2787 
Q 1159 2491 1159 1978 
L 1159 0 
L 581 0 
L 581 4863 
L 1159 4863 
L 1159 2956 
Q 1366 3272 1645 3428 
Q 1925 3584 2291 3584 
Q 2894 3584 3203 3211 
Q 3513 2838 3513 2113 
z
" transform="scale(0.015625)"/>
       <path id="DejaVuSans-5d" d="M 1947 4863 
L 1947 -844 
L 622 -844 
L 622 -397 
L 1369 -397 
L 1369 4416 
L 622 4416 
L 622 4863 
L 1947 4863 
z
" transform="scale(0.015625)"/>
      </defs>
      <use xlink:href="#DejaVuSans-59"/>
      <use xlink:href="#DejaVuSans-69" x="57.458984"/>
      <use xlink:href="#DejaVuSans-65" x="85.242188"/>
      <use xlink:href="#DejaVuSans-6c" x="146.765625"/>
      <use xlink:href="#DejaVuSans-64" x="174.548828"/>
      <use xlink:href="#DejaVuSans-20" x="238.025391"/>
      <use xlink:href="#DejaVuSans-5b" x="269.8125"/>
      <use xlink:href="#DejaVuSans-74" x="308.826172"/>
      <use xlink:href="#DejaVuSans-2f" x="348.035156"/>
      <use xlink:href="#DejaVuSans-68" x="381.726562"/>
      <use xlink:href="#DejaVuSans-61" x="445.105469"/>
      <use xlink:href="#DejaVuSans-5d" x="506.384766"/>
     </g>
    </g>
   </g>
   <g id="line2d_25">
    <path d="M 84.920455 127.806226 
L 104.807806 150.528375 
L 124.695158 216.087681 
L 144.58251 155.50736 
L 164.469862 167.514103 
L 184.357213 161.604517 
L 204.244565 145.422719 
L 224.131917 134.074616 
L 244.019269 186.63619 
L 263.906621 178.080502 
L 283.793972 114.088518 
L 303.681324 154.934844 
L 323.568676 185.098418 
L 343.456028 159.834518 
L 363.343379 144.12685 
L 383.230731 171.920637 
L 403.118083 138.639814 
L 423.005435 139.752754 
L 442.892787 144.569831 
L 462.780138 192.493931 
L 482.66749 125.541566 
L 502.554842 165.700611 
L 522.442194 184.719585 
L 542.329545 142.579516 
" clip-path="url(#paaee6fe93f)" style="fill: none; stroke: #1f77b4; stroke-width: 1.5; stroke-linecap: square"/>
    <defs>
     <path id="m1f488f7cb7" d="M 0 3 
C 0.795609 3 1.55874 2.683901 2.12132 2.12132 
C 2.683901 1.55874 3 0.795609 3 0 
C 3 -0.795609 2.683901 -1.55874 2.12132 -2.12132 
C 1.55874 -2.683901 0.795609 -3 0 -3 
C -0.795609 -3 -1.55874 -2.683901 -2.12132 -2.12132 
C -2.683901 -1.55874 -3 -0.795609 -3 0 
C -3 0.795609 -2.683901 1.55874 -2.12132 2.12132 
C -1.55874 2.683901 -0.795609 3 0 3 
z
" style="stroke: #1f77b4"/>
    </defs>
    <g clip-path="url(#paaee6fe93f)">
     <use xlink:href="#m1f488f7cb7" x="84.920455" y="127.806226" style="fill: #1f77b4; stroke: #1f77b4"/>
     <use xlink:href="#m1f488f7cb7" x="104.807806" y="150.528375" style="fill: #1f77b4; stroke: #1f77b4"/>
     <use xlink:href="#m1f488f7cb7" x="124.695158" y="216.087681" style="fill: #1f77b4; stroke: #1f77b4"/>
     <use xlink:href="#m1f488f7cb7" x="144.58251" y="155.50736" style="fill: #1f77b4; stroke: #1f77b4"/>
     <use xlink:href="#m1f488f7cb7" x="164.469862" y="167.514103" style="fill: #1f77b4; stroke: #1f77b4"/>
     <use xlink:href="#m1f488f7cb7" x="184.357213" y="161.604517" style="fill: #1f77b4; stroke: #1f77b4"/>
     <use xlink:href="#m1f488f7cb7" x="204.244565" y="145.422719" style="fill: #1f77b4; stroke: #1f77b4"/>
     <use xlink:href="#m1f488f7cb7" x="224.131917" y="134.074616" style="fill: #1f77b4; stroke: #1f77b4"/>
     <use xlink:href="#m1f488f7cb7" x="244.019269" y="186.63619" style="fill: #1f77b4; stroke: #1f77b4"/>
     <use xlink:href="#m1f488f7cb7" x="263.906621" y="178.080502" style="fill: #1f77b4; stroke: #1f77b4"/>
     <use xlink:href="#m1f488f7cb7" x="283.793972" y="114.088518" style="fill: #1f77b4; stroke: #1f77b4"/>
     <use xlink:href="#m1f488f7cb7" x="303.681324" y="154.934844" style="fill: #1f77b4; stroke: #1f77b4"/>
     <use xlink:href="#m1f488f7cb7" x="323.568676" y="185.098418" style="fill: #1f77b4; stroke: #1f77b4"/>
     <use xlink:href="#m1f488f7cb7" x="343.456028" y="159.834518" style="fill: #1f77b4; stroke: #1f77b4"/>
     <use xlink:href="#m1f488f7cb7" x="363.343379" y="144.12685" style="fill: #1f77b4; stroke: #1f77b4"/>
     <use xlink:href="#m1f488f7cb7" x="383.230731" y="171.920637" style="fill: #1f77b4; stroke: #1f77b4"/>
     <use xlink:href="#m1f488f7cb7" x="403.118083" y="138.639814" style="fill: #1f77b4; stroke: #1f77b4"/>
     <use xlink:href="#m1f488f7cb7" x="423.005435" y="139.752754" style="fill: #1f77b4; stroke: #1f77b4"/>
     <use xlink:href="#m1f488f7cb7" x="442.892787" y="144.569831" style="fill: #1f77b4; stroke: #1f77b4"/>
     <use xlink:href="#m1f488f7cb7" x="462.780138" y="192.493931" style="fill: #1f77b4; stroke: #1f77b4"/>
     <use xlink:href="#m1f488f7cb7" x="482.66749" y="125.541566" style="fill: #1f77b4; stroke: #1f77b4"/>
     <use xlink:href="#m1f488f7cb7" x="502.554842" y="165.700611" style="fill: #1f77b4; stroke: #1f77b4"/>
     <use xlink:href="#m1f488f7cb7" x="522.442194" y="184.719585" style="fill: #1f77b4; stroke: #1f77b4"/>
     <use xlink:href="#m1f488f7cb7" x="542.329545" y="142.579516" style="fill: #1f77b4; stroke: #1f77b4"/>
    </g>
   </g>
   <g id="line2d_26">
    <path d="M 84.920455 119.318378 
L 104.807806 143.716796 
L 124.695158 211.681191 
L 144.58251 150.224284 
L 164.469862 180.143173 
L 184.357213 160.471195 
L 204.244565 125.419454 
L 224.131917 123.872207 
L 244.019269 188.97092 
L 263.906621 176.995385 
L 283.793972 98.486952 
L 303.681324 138.811432 
L 323.568676 187.219547 
L 343.456028 160.886956 
L 363.343379 125.520222 
L 383.230731 158.662716 
L 403.118083 165.516763 
L 423.005435 109.326132 
L 442.892787 99.525494 
L 462.780138 187.254853 
L 482.66749 122.259949 
L 502.554842 162.828307 
L 522.442194 209.29107 
L 542.329545 148.284412 
" clip-path="url(#paaee6fe93f)" style="fill: none; stroke: #ff7f0e; stroke-width: 1.5; stroke-linecap: square"/>
    <defs>
     <path id="m05cdffba52" d="M 0 3 
C 0.795609 3 1.55874 2.683901 2.12132 2.12132 
C 2.683901 1.55874 3 0.795609 3 0 
C 3 -0.795609 2.683901 -1.55874 2.12132 -2.12132 
C 1.55874 -2.683901 0.795609 -3 0 -3 
C -0.795609 -3 -1.55874 -2.683901 -2.12132 -2.12132 
C -2.683901 -1.55874 -3 -0.795609 -3 0 
C -3 0.795609 -2.683901 1.55874 -2.12132 2.12132 
C -1.55874 2.683901 -0.795609 3 0 3 
z
" style="stroke: #ff7f0e"/>
    </defs>
    <g clip-path="url(#paaee6fe93f)">
     <use xlink:href="#m05cdffba52" x="84.920455" y="119.318378" style="fill: #ff7f0e; stroke: #ff7f0e"/>
     <use xlink:href="#m05cdffba52" x="104.807806" y="143.716796" style="fill: #ff7f0e; stroke: #ff7f0e"/>
     <use xlink:href="#m05cdffba52" x="124.695158" y="211.681191" style="fill: #ff7f0e; stroke: #ff7f0e"/>
     <use xlink:href="#m05cdffba52" x="144.58251" y="150.224284" style="fill: #ff7f0e; stroke: #ff7f0e"/>
     <use xlink:href="#m05cdffba52" x="164.469862" y="180.143173" style="fill: #ff7f0e; stroke: #ff7f0e"/>
     <use xlink:href="#m05cdffba52" x="184.357213" y="160.471195" style="fill: #ff7f0e; stroke: #ff7f0e"/>
     <use xlink:href="#m05cdffba52" x="204.244565" y="125.419454" style="fill: #ff7f0e; stroke: #ff7f0e"/>
     <use xlink:href="#m05cdffba52" x="224.131917" y="123.872207" style="fill: #ff7f0e; stroke: #ff7f0e"/>
     <use xlink:href="#m05cdffba52" x="244.019269" y="188.97092" style="fill: #ff7f0e; stroke: #ff7f0e"/>
     <use xlink:href="#m05cdffba52" x="263.906621" y="176.995385" style="fill: #ff7f0e; stroke: #ff7f0e"/>
     <use xlink:href="#m05cdffba52" x="283.793972" y="98.486952" style="fill: #ff7f0e; stroke: #ff7f0e"/>
     <use xlink:href="#m05cdffba52" x="303.681324" y="138.811432" style="fill: #ff7f0e; stroke: #ff7f0e"/>
     <use xlink:href="#m05cdffba52" x="323.568676" y="187.219547" style="fill: #ff7f0e; stroke: #ff7f0e"/>
     <use xlink:href="#m05cdffba52" x="343.456028" y="160.886956" style="fill: #ff7f0e; stroke: #ff7f0e"/>
     <use xlink:href="#m05cdffba52" x="363.343379" y="125.520222" style="fill: #ff7f0e; stroke: #ff7f0e"/>
     <use xlink:href="#m05cdffba52" x="383.230731" y="158.662716" style="fill: #ff7f0e; stroke: #ff7f0e"/>
     <use xlink:href="#m05cdffba52" x="403.118083" y="165.516763" style="fill: #ff7f0e; stroke: #ff7f0e"/>
     <use xlink:href="#m05cdffba52" x="423.005435" y="109.326132" style="fill: #ff7f0e; stroke: #ff7f0e"/>
     <use xlink:href="#m05cdffba52" x="442.892787" y="99.525494" style="fill: #ff7f0e; stroke: #ff7f0e"/>
     <use xlink:href="#m05cdffba52" x="462.780138" y="187.254853" style="fill: #ff7f0e; stroke: #ff7f0e"/>
     <use xlink:href="#m05cdffba52" x="482.66749" y="122.259949" style="fill: #ff7f0e; stroke: #ff7f0e"/>
     <use xlink:href="#m05cdffba52" x="502.554842" y="162.828307" style="fill: #ff7f0e; stroke: #ff7f0e"/>
     <use xlink:href="#m05cdffba52" x="522.442194" y="209.29107" style="fill: #ff7f0e; stroke: #ff7f0e"/>
     <use xlink:href="#m05cdffba52" x="542.329545" y="148.284412" style="fill: #ff7f0e; stroke: #ff7f0e"/>
    </g>
   </g>
   <g id="line2d_27">
    <path d="M 84.920455 107.295071 
L 104.807806 141.732441 
L 124.695158 212.89866 
L 144.58251 174.413901 
L 164.469862 165.059597 
L 184.357213 160.520328 
L 204.244565 129.678831 
L 224.131917 123.496347 
L 244.019269 203.265695 
L 263.906621 197.320363 
L 283.793972 84.796673 
L 303.681324 137.526394 
L 323.568676 184.526285 
L 343.456028 170.948824 
L 363.343379 118.598846 
L 383.230731 160.291718 
L 403.118083 154.27247 
L 423.005435 115.270556 
L 442.892787 94.82532 
L 462.780138 161.815702 
L 482.66749 109.249085 
L 502.554842 165.667426 
L 522.442194 196.058515 
L 542.329545 152.282137 
" clip-path="url(#paaee6fe93f)" style="fill: none; stroke: #2ca02c; stroke-width: 1.5; stroke-linecap: square"/>
    <defs>
     <path id="m82f38d9196" d="M 0 3 
C 0.795609 3 1.55874 2.683901 2.12132 2.12132 
C 2.683901 1.55874 3 0.795609 3 0 
C 3 -0.795609 2.683901 -1.55874 2.12132 -2.12132 
C 1.55874 -2.683901 0.795609 -3 0 -3 
C -0.795609 -3 -1.55874 -2.683901 -2.12132 -2.12132 
C -2.683901 -1.55874 -3 -0.795609 -3 0 
C -3 0.795609 -2.683901 1.55874 -2.12132 2.12132 
C -1.55874 2.683901 -0.795609 3 0 3 
z
" style="stroke: #2ca02c"/>
    </defs>
    <g clip-path="url(#paaee6fe93f)">
     <use xlink:href="#m82f38d9196" x="84.920455" y="107.295071" style="fill: #2ca02c; stroke: #2ca02c"/>
     <use xlink:href="#m82f38d9196" x="104.807806" y="141.732441" style="fill: #2ca02c; stroke: #2ca02c"/>
     <use xlink:href="#m82f38d9196" x="124.695158" y="212.89866" style="fill: #2ca02c; stroke: #2ca02c"/>
     <use xlink:href="#m82f38d9196" x="144.58251" y="174.413901" style="fill: #2ca02c; stroke: #2ca02c"/>
     <use xlink:href="#m82f38d9196" x="164.469862" y="165.059597" style="fill: #2ca02c; stroke: #2ca02c"/>
     <use xlink:href="#m82f38d9196" x="184.357213" y="160.520328" style="fill: #2ca02c; stroke: #2ca02c"/>
     <use xlink:href="#m82f38d9196" x="204.244565" y="129.678831" style="fill: #2ca02c; stroke: #2ca02c"/>
     <use xlink:href="#m82f38d9196" x="224.131917" y="123.496347" style="fill: #2ca02c; stroke: #2ca02c"/>
     <use xlink:href="#m82f38d9196" x="244.019269" y="203.265695" style="fill: #2ca02c; stroke: #2ca02c"/>
     <use xlink:href="#m82f38d9196" x="263.906621" y="197.320363" style="fill: #2ca02c; stroke: #2ca02c"/>
     <use xlink:href="#m82f38d9196" x="283.793972" y="84.796673" style="fill: #2ca02c; stroke: #2ca02c"/>
     <use xlink:href="#m82f38d9196" x="303.681324" y="137.526394" style="fill: #2ca02c; stroke: #2ca02c"/>
     <use xlink:href="#m82f38d9196" x="323.568676" y="184.526285" style="fill: #2ca02c; stroke: #2ca02c"/>
     <use xlink:href="#m82f38d9196" x="343.456028" y="170.948824" style="fill: #2ca02c; stroke: #2ca02c"/>
     <use xlink:href="#m82f38d9196" x="363.343379" y="118.598846" style="fill: #2ca02c; stroke: #2ca02c"/>
     <use xlink:href="#m82f38d9196" x="383.230731" y="160.291718" style="fill: #2ca02c; stroke: #2ca02c"/>
     <use xlink:href="#m82f38d9196" x="403.118083" y="154.27247" style="fill: #2ca02c; stroke: #2ca02c"/>
     <use xlink:href="#m82f38d9196" x="423.005435" y="115.270556" style="fill: #2ca02c; stroke: #2ca02c"/>
     <use xlink:href="#m82f38d9196" x="442.892787" y="94.82532" style="fill: #2ca02c; stroke: #2ca02c"/>
     <use xlink:href="#m82f38d9196" x="462.780138" y="161.815702" style="fill: #2ca02c; stroke: #2ca02c"/>
     <use xlink:href="#m82f38d9196" x="482.66749" y="109.249085" style="fill: #2ca02c; stroke: #2ca02c"/>
     <use xlink:href="#m82f38d9196" x="502.554842" y="165.667426" style="fill: #2ca02c; stroke: #2ca02c"/>
     <use xlink:href="#m82f38d9196" x="522.442194" y="196.058515" style="fill: #2ca02c; stroke: #2ca02c"/>
     <use xlink:href="#m82f38d9196" x="542.329545" y="152.282137" style="fill: #2ca02c; stroke: #2ca02c"/>
    </g>
   </g>
   <g id="line2d_28">
    <path d="M 84.920455 151.876727 
L 104.807806 141.998192 
L 124.695158 160.841205 
L 144.58251 104.208027 
L 164.469862 166.856025 
L 184.357213 182.39601 
L 204.244565 113.766112 
L 224.131917 219.825901 
L 244.019269 141.993094 
L 263.906621 248.494544 
L 283.793972 71.577144 
L 303.681324 150.921542 
L 323.568676 182.458449 
L 343.456028 273.560683 
L 363.343379 155.328068 
L 383.230731 99.83547 
L 403.118083 203.813507 
L 423.005435 64.743803 
L 442.892787 107.353654 
L 462.780138 190.509555 
L 482.66749 109.850505 
L 502.554842 233.666457 
L 522.442194 246.775293 
L 542.329545 61.396 
" clip-path="url(#paaee6fe93f)" style="fill: none; stroke: #d62728; stroke-width: 1.5; stroke-linecap: square"/>
    <defs>
     <path id="mcf544d90d1" d="M 0 3 
C 0.795609 3 1.55874 2.683901 2.12132 2.12132 
C 2.683901 1.55874 3 0.795609 3 0 
C 3 -0.795609 2.683901 -1.55874 2.12132 -2.12132 
C 1.55874 -2.683901 0.795609 -3 0 -3 
C -0.795609 -3 -1.55874 -2.683901 -2.12132 -2.12132 
C -2.683901 -1.55874 -3 -0.795609 -3 0 
C -3 0.795609 -2.683901 1.55874 -2.12132 2.12132 
C -1.55874 2.683901 -0.795609 3 0 3 
z
" style="stroke: #d62728"/>
    </defs>
    <g clip-path="url(#paaee6fe93f)">
     <use xlink:href="#mcf544d90d1" x="84.920455" y="151.876727" style="fill: #d62728; stroke: #d62728"/>
     <use xlink:href="#mcf544d90d1" x="104.807806" y="141.998192" style="fill: #d62728; stroke: #d62728"/>
     <use xlink:href="#mcf544d90d1" x="124.695158" y="160.841205" style="fill: #d62728; stroke: #d62728"/>
     <use xlink:href="#mcf544d90d1" x="144.58251" y="104.208027" style="fill: #d62728; stroke: #d62728"/>
     <use xlink:href="#mcf544d90d1" x="164.469862" y="166.856025" style="fill: #d62728; stroke: #d62728"/>
     <use xlink:href="#mcf544d90d1" x="184.357213" y="182.39601" style="fill: #d62728; stroke: #d62728"/>
     <use xlink:href="#mcf544d90d1" x="204.244565" y="113.766112" style="fill: #d62728; stroke: #d62728"/>
     <use xlink:href="#mcf544d90d1" x="224.131917" y="219.825901" style="fill: #d62728; stroke: #d62728"/>
     <use xlink:href="#mcf544d90d1" x="244.019269" y="141.993094" style="fill: #d62728; stroke: #d62728"/>
     <use xlink:href="#mcf544d90d1" x="263.906621" y="248.494544" style="fill: #d62728; stroke: #d62728"/>
     <use xlink:href="#mcf544d90d1" x="283.793972" y="71.577144" style="fill: #d62728; stroke: #d62728"/>
     <use xlink:href="#mcf544d90d1" x="303.681324" y="150.921542" style="fill: #d62728; stroke: #d62728"/>
     <use xlink:href="#mcf544d90d1" x="323.568676" y="182.458449" style="fill: #d62728; stroke: #d62728"/>
     <use xlink:href="#mcf544d90d1" x="343.456028" y="273.560683" style="fill: #d62728; stroke: #d62728"/>
     <use xlink:href="#mcf544d90d1" x="363.343379" y="155.328068" style="fill: #d62728; stroke: #d62728"/>
     <use xlink:href="#mcf544d90d1" x="383.230731" y="99.83547" style="fill: #d62728; stroke: #d62728"/>
     <use xlink:href="#mcf544d90d1" x="403.118083" y="203.813507" style="fill: #d62728; stroke: #d62728"/>
     <use xlink:href="#mcf544d90d1" x="423.005435" y="64.743803" style="fill: #d62728; stroke: #d62728"/>
     <use xlink:href="#mcf544d90d1" x="442.892787" y="107.353654" style="fill: #d62728; stroke: #d62728"/>
     <use xlink:href="#mcf544d90d1" x="462.780138" y="190.509555" style="fill: #d62728; stroke: #d62728"/>
     <use xlink:href="#mcf544d90d1" x="482.66749" y="109.850505" style="fill: #d62728; stroke: #d62728"/>
     <use xlink:href="#mcf544d90d1" x="502.554842" y="233.666457" style="fill: #d62728; stroke: #d62728"/>
     <use xlink:href="#mcf544d90d1" x="522.442194" y="246.775293" style="fill: #d62728; stroke: #d62728"/>
     <use xlink:href="#mcf544d90d1" x="542.329545" y="61.396" style="fill: #d62728; stroke: #d62728"/>
    </g>
   </g>
   <g id="patch_3">
    <path d="M 62.05 306.2 
L 62.05 31.8 
" style="fill: none; stroke: #000000; stroke-width: 0.8; stroke-linejoin: miter; stroke-linecap: square"/>
   </g>
   <g id="patch_4">
    <path d="M 565.2 306.2 
L 565.2 31.8 
" style="fill: none; stroke: #000000; stroke-width: 0.8; stroke-linejoin: miter; stroke-linecap: square"/>
   </g>
   <g id="patch_5">
    <path d="M 62.05 306.2 
L 565.2 306.2 
" style="fill: none; stroke: #000000; stroke-width: 0.8; stroke-linejoin: miter; stroke-linecap: square"/>
   </g>
   <g id="patch_6">
    <path d="M 62.05 31.8 
L 565.2 31.8 
" style="fill: none; stroke: #000000; stroke-width: 0.8; stroke-linejoin: miter; stroke-linecap: square"/>
   </g>
   <g id="text_15">
    <!-- b) September -->
    <g transform="translate(62.05 25.8)scale(0.2 -0.2)">
     <defs>
      <path id="DejaVuSans-62" d="M 3116 1747 
Q 3116 2381 2855 2742 
Q 2594 3103 2138 3103 
Q 1681 3103 1420 2742 
Q 1159 2381 1159 1747 
Q 1159 1113 1420 752 
Q 1681 391 2138 391 
Q 2594 391 2855 752 
Q 3116 1113 3116 1747 
z
M 1159 2969 
Q 1341 3281 1617 3432 
Q 1894 3584 2278 3584 
Q 2916 3584 3314 3078 
Q 3713 2572 3713 1747 
Q 3713 922 3314 415 
Q 2916 -91 2278 -91 
Q 1894 -91 1617 61 
Q 1341 213 1159 525 
L 1159 0 
L 581 0 
L 581 4863 
L 1159 4863 
L 1159 2969 
z
" transform="scale(0.015625)"/>
      <path id="DejaVuSans-29" d="M 513 4856 
L 1013 4856 
Q 1481 4119 1714 3412 
Q 1947 2706 1947 2009 
Q 1947 1309 1714 600 
Q 1481 -109 1013 -844 
L 513 -844 
Q 928 -128 1133 580 
Q 1338 1288 1338 2009 
Q 1338 2731 1133 3434 
Q 928 4138 513 4856 
z
" transform="scale(0.015625)"/>
      <path id="DejaVuSans-53" d="M 3425 4513 
L 3425 3897 
Q 3066 4069 2747 4153 
Q 2428 4238 2131 4238 
Q 1616 4238 1336 4038 
Q 1056 3838 1056 3469 
Q 1056 3159 1242 3001 
Q 1428 2844 1947 2747 
L 2328 2669 
Q 3034 2534 3370 2195 
Q 3706 1856 3706 1288 
Q 3706 609 3251 259 
Q 2797 -91 1919 -91 
Q 1588 -91 1214 -16 
Q 841 59 441 206 
L 441 856 
Q 825 641 1194 531 
Q 1563 422 1919 422 
Q 2459 422 2753 634 
Q 3047 847 3047 1241 
Q 3047 1584 2836 1778 
Q 2625 1972 2144 2069 
L 1759 2144 
Q 1053 2284 737 2584 
Q 422 2884 422 3419 
Q 422 4038 858 4394 
Q 1294 4750 2059 4750 
Q 2388 4750 2728 4690 
Q 3069 4631 3425 4513 
z
" transform="scale(0.015625)"/>
      <path id="DejaVuSans-70" d="M 1159 525 
L 1159 -1331 
L 581 -1331 
L 581 3500 
L 1159 3500 
L 1159 2969 
Q 1341 3281 1617 3432 
Q 1894 3584 2278 3584 
Q 2916 3584 3314 3078 
Q 3713 2572 3713 1747 
Q 3713 922 3314 415 
Q 2916 -91 2278 -91 
Q 1894 -91 1617 61 
Q 1341 213 1159 525 
z
M 3116 1747 
Q 3116 2381 2855 2742 
Q 2594 3103 2138 3103 
Q 1681 3103 1420 2742 
Q 1159 2381 1159 1747 
Q 1159 1113 1420 752 
Q 1681 391 2138 391 
Q 2594 391 2855 752 
Q 3116 1113 3116 1747 
z
" transform="scale(0.015625)"/>
      <path id="DejaVuSans-6d" d="M 3328 2828 
Q 3544 3216 3844 3400 
Q 4144 3584 4550 3584 
Q 5097 3584 5394 3201 
Q 5691 2819 5691 2113 
L 5691 0 
L 5113 0 
L 5113 2094 
Q 5113 2597 4934 2840 
Q 4756 3084 4391 3084 
Q 3944 3084 3684 2787 
Q 3425 2491 3425 1978 
L 3425 0 
L 2847 0 
L 2847 2094 
Q 2847 2600 2669 2842 
Q 2491 3084 2119 3084 
Q 1678 3084 1418 2786 
Q 1159 2488 1159 1978 
L 1159 0 
L 581 0 
L 581 3500 
L 1159 3500 
L 1159 2956 
Q 1356 3278 1631 3431 
Q 1906 3584 2284 3584 
Q 2666 3584 2933 3390 
Q 3200 3197 3328 2828 
z
" transform="scale(0.015625)"/>
     </defs>
     <use xlink:href="#DejaVuSans-62"/>
     <use xlink:href="#DejaVuSans-29" x="63.476562"/>
     <use xlink:href="#DejaVuSans-20" x="102.490234"/>
     <use xlink:href="#DejaVuSans-53" x="134.277344"/>
     <use xlink:href="#DejaVuSans-65" x="197.753906"/>
     <use xlink:href="#DejaVuSans-70" x="259.277344"/>
     <use xlink:href="#DejaVuSans-74" x="322.753906"/>
     <use xlink:href="#DejaVuSans-65" x="361.962891"/>
     <use xlink:href="#DejaVuSans-6d" x="423.486328"/>
     <use xlink:href="#DejaVuSans-62" x="520.898438"/>
     <use xlink:href="#DejaVuSans-65" x="584.375"/>
     <use xlink:href="#DejaVuSans-72" x="645.898438"/>
    </g>
   </g>
   <g id="legend_1">
    <g id="patch_7">
     <path d="M 257.65625 298.7 
L 369.59375 298.7 
Q 372.59375 298.7 372.59375 295.7 
L 372.59375 209.13125 
Q 372.59375 206.13125 369.59375 206.13125 
L 257.65625 206.13125 
Q 254.65625 206.13125 254.65625 209.13125 
L 254.65625 295.7 
Q 254.65625 298.7 257.65625 298.7 
z
" style="fill: #ffffff; opacity: 0.8; stroke: #cccccc; stroke-linejoin: miter"/>
    </g>
    <g id="line2d_29">
     <path d="M 260.65625 218.278906 
L 275.65625 218.278906 
L 290.65625 218.278906 
" style="fill: none; stroke: #1f77b4; stroke-width: 1.5; stroke-linecap: square"/>
     <g>
      <use xlink:href="#m1f488f7cb7" x="275.65625" y="218.278906" style="fill: #1f77b4; stroke: #1f77b4"/>
     </g>
    </g>
    <g id="text_16">
     <!-- CLIMATE -->
     <g transform="translate(302.65625 223.528906)scale(0.15 -0.15)">
      <defs>
       <path id="DejaVuSans-43" d="M 4122 4306 
L 4122 3641 
Q 3803 3938 3442 4084 
Q 3081 4231 2675 4231 
Q 1875 4231 1450 3742 
Q 1025 3253 1025 2328 
Q 1025 1406 1450 917 
Q 1875 428 2675 428 
Q 3081 428 3442 575 
Q 3803 722 4122 1019 
L 4122 359 
Q 3791 134 3420 21 
Q 3050 -91 2638 -91 
Q 1578 -91 968 557 
Q 359 1206 359 2328 
Q 359 3453 968 4101 
Q 1578 4750 2638 4750 
Q 3056 4750 3426 4639 
Q 3797 4528 4122 4306 
z
" transform="scale(0.015625)"/>
       <path id="DejaVuSans-4c" d="M 628 4666 
L 1259 4666 
L 1259 531 
L 3531 531 
L 3531 0 
L 628 0 
L 628 4666 
z
" transform="scale(0.015625)"/>
       <path id="DejaVuSans-49" d="M 628 4666 
L 1259 4666 
L 1259 0 
L 628 0 
L 628 4666 
z
" transform="scale(0.015625)"/>
       <path id="DejaVuSans-4d" d="M 628 4666 
L 1569 4666 
L 2759 1491 
L 3956 4666 
L 4897 4666 
L 4897 0 
L 4281 0 
L 4281 4097 
L 3078 897 
L 2444 897 
L 1241 4097 
L 1241 0 
L 628 0 
L 628 4666 
z
" transform="scale(0.015625)"/>
       <path id="DejaVuSans-41" d="M 2188 4044 
L 1331 1722 
L 3047 1722 
L 2188 4044 
z
M 1831 4666 
L 2547 4666 
L 4325 0 
L 3669 0 
L 3244 1197 
L 1141 1197 
L 716 0 
L 50 0 
L 1831 4666 
z
" transform="scale(0.015625)"/>
       <path id="DejaVuSans-54" d="M -19 4666 
L 3928 4666 
L 3928 4134 
L 2272 4134 
L 2272 0 
L 1638 0 
L 1638 4134 
L -19 4134 
L -19 4666 
z
" transform="scale(0.015625)"/>
       <path id="DejaVuSans-45" d="M 628 4666 
L 3578 4666 
L 3578 4134 
L 1259 4134 
L 1259 2753 
L 3481 2753 
L 3481 2222 
L 1259 2222 
L 1259 531 
L 3634 531 
L 3634 0 
L 628 0 
L 628 4666 
z
" transform="scale(0.015625)"/>
      </defs>
      <use xlink:href="#DejaVuSans-43"/>
      <use xlink:href="#DejaVuSans-4c" x="69.824219"/>
      <use xlink:href="#DejaVuSans-49" x="125.537109"/>
      <use xlink:href="#DejaVuSans-4d" x="155.029297"/>
      <use xlink:href="#DejaVuSans-41" x="241.308594"/>
      <use xlink:href="#DejaVuSans-54" x="301.966797"/>
      <use xlink:href="#DejaVuSans-45" x="363.050781"/>
     </g>
    </g>
    <g id="line2d_30">
     <path d="M 260.65625 240.296094 
L 275.65625 240.296094 
L 290.65625 240.296094 
" style="fill: none; stroke: #ff7f0e; stroke-width: 1.5; stroke-linecap: square"/>
     <g>
      <use xlink:href="#m05cdffba52" x="275.65625" y="240.296094" style="fill: #ff7f0e; stroke: #ff7f0e"/>
     </g>
    </g>
    <g id="text_17">
     <!-- ECMWF -->
     <g transform="translate(302.65625 245.546094)scale(0.15 -0.15)">
      <defs>
       <path id="DejaVuSans-57" d="M 213 4666 
L 850 4666 
L 1831 722 
L 2809 4666 
L 3519 4666 
L 4500 722 
L 5478 4666 
L 6119 4666 
L 4947 0 
L 4153 0 
L 3169 4050 
L 2175 0 
L 1381 0 
L 213 4666 
z
" transform="scale(0.015625)"/>
       <path id="DejaVuSans-46" d="M 628 4666 
L 3309 4666 
L 3309 4134 
L 1259 4134 
L 1259 2759 
L 3109 2759 
L 3109 2228 
L 1259 2228 
L 1259 0 
L 628 0 
L 628 4666 
z
" transform="scale(0.015625)"/>
      </defs>
      <use xlink:href="#DejaVuSans-45"/>
      <use xlink:href="#DejaVuSans-43" x="63.183594"/>
      <use xlink:href="#DejaVuSans-4d" x="133.007812"/>
      <use xlink:href="#DejaVuSans-57" x="219.287109"/>
      <use xlink:href="#DejaVuSans-46" x="318.164062"/>
     </g>
    </g>
    <g id="line2d_31">
     <path d="M 260.65625 262.313281 
L 275.65625 262.313281 
L 290.65625 262.313281 
" style="fill: none; stroke: #2ca02c; stroke-width: 1.5; stroke-linecap: square"/>
     <g>
      <use xlink:href="#m82f38d9196" x="275.65625" y="262.313281" style="fill: #2ca02c; stroke: #2ca02c"/>
     </g>
    </g>
    <g id="text_18">
     <!-- MME -->
     <g transform="translate(302.65625 267.563281)scale(0.15 -0.15)">
      <use xlink:href="#DejaVuSans-4d"/>
      <use xlink:href="#DejaVuSans-4d" x="86.279297"/>
      <use xlink:href="#DejaVuSans-45" x="172.558594"/>
     </g>
    </g>
    <g id="line2d_32">
     <path d="M 260.65625 284.330469 
L 275.65625 284.330469 
L 290.65625 284.330469 
" style="fill: none; stroke: #d62728; stroke-width: 1.5; stroke-linecap: square"/>
     <g>
      <use xlink:href="#mcf544d90d1" x="275.65625" y="284.330469" style="fill: #d62728; stroke: #d62728"/>
     </g>
    </g>
    <g id="text_19">
     <!-- OBS -->
     <g transform="translate(302.65625 289.580469)scale(0.15 -0.15)">
      <defs>
       <path id="DejaVuSans-4f" d="M 2522 4238 
Q 1834 4238 1429 3725 
Q 1025 3213 1025 2328 
Q 1025 1447 1429 934 
Q 1834 422 2522 422 
Q 3209 422 3611 934 
Q 4013 1447 4013 2328 
Q 4013 3213 3611 3725 
Q 3209 4238 2522 4238 
z
M 2522 4750 
Q 3503 4750 4090 4092 
Q 4678 3434 4678 2328 
Q 4678 1225 4090 567 
Q 3503 -91 2522 -91 
Q 1538 -91 948 565 
Q 359 1222 359 2328 
Q 359 3434 948 4092 
Q 1538 4750 2522 4750 
z
" transform="scale(0.015625)"/>
       <path id="DejaVuSans-42" d="M 1259 2228 
L 1259 519 
L 2272 519 
Q 2781 519 3026 730 
Q 3272 941 3272 1375 
Q 3272 1813 3026 2020 
Q 2781 2228 2272 2228 
L 1259 2228 
z
M 1259 4147 
L 1259 2741 
L 2194 2741 
Q 2656 2741 2882 2914 
Q 3109 3088 3109 3444 
Q 3109 3797 2882 3972 
Q 2656 4147 2194 4147 
L 1259 4147 
z
M 628 4666 
L 2241 4666 
Q 2963 4666 3353 4366 
Q 3744 4066 3744 3513 
Q 3744 3084 3544 2831 
Q 3344 2578 2956 2516 
Q 3422 2416 3680 2098 
Q 3938 1781 3938 1306 
Q 3938 681 3513 340 
Q 3088 0 2303 0 
L 628 0 
L 628 4666 
z
" transform="scale(0.015625)"/>
      </defs>
      <use xlink:href="#DejaVuSans-4f"/>
      <use xlink:href="#DejaVuSans-42" x="78.710938"/>
      <use xlink:href="#DejaVuSans-53" x="145.564453"/>
     </g>
    </g>
   </g>
  </g>
 </g>
 <defs>
  <clipPath id="paaee6fe93f">
   <rect x="62.05" y="31.8" width="503.15" height="274.4"/>
  </clipPath>
 </defs>
</svg>
