<?xml version="1.0" encoding="utf-8" standalone="no"?>
<!DOCTYPE svg PUBLIC "-//W3C//DTD SVG 1.1//EN"
  "http://www.w3.org/Graphics/SVG/1.1/DTD/svg11.dtd">
<svg xmlns:xlink="http://www.w3.org/1999/xlink" width="648pt" height="360pt" viewBox="0 0 648 360" xmlns="http://www.w3.org/2000/svg" version="1.1">
 <metadata>
  <rdf:RDF xmlns:dc="http://purl.org/dc/elements/1.1/" xmlns:cc="http://creativecommons.org/ns#" xmlns:rdf="http://www.w3.org/1999/02/22-rdf-syntax-ns#">
   <cc:Work>
    <dc:type rdf:resource="http://purl.org/dc/dcmitype/StillImage"/>
    <dc:date>2022-09-28T16:25:17.476291</dc:date>
    <dc:format>image/svg+xml</dc:format>
    <dc:creator>
     <cc:Agent>
      <dc:title>Matplotlib v3.5.1, https://matplotlib.org/</dc:title>
     </cc:Agent>
    </dc:creator>
   </cc:Work>
  </rdf:RDF>
 </metadata>
 <defs>
  <style type="text/css">*{stroke-linejoin: round; stroke-linecap: butt}</style>
 </defs>
 <g id="figure_1">
  <g id="patch_1">
   <path d="M 0 360 
L 648 360 
L 648 0 
L 0 0 
L 0 360 
z
" style="fill: none"/>
  </g>
  <g id="axes_1">
   <g id="patch_2">
    <path d="M 81 315 
L 583.2 315 
L 583.2 43.2 
L 81 43.2 
z
" style="fill: #ffffff"/>
   </g>
   <g id="matplotlib.axis_1">
    <g id="xtick_1">
     <g id="line2d_1">
      <path d="M 143.526877 315 
L 143.526877 43.2 
" clip-path="url(#pb21525036c)" style="fill: none; stroke-dasharray: 2.59,1.12; stroke-dashoffset: 0; stroke: #b0b0b0; stroke-width: 0.7"/>
     </g>
     <g id="line2d_2">
      <defs>
       <path id="ma8f74c8828" d="M 0 0 
L 0 3.5 
" style="stroke: #000000; stroke-width: 0.8"/>
      </defs>
      <g>
       <use xlink:href="#ma8f74c8828" x="143.526877" y="315" style="stroke: #000000; stroke-width: 0.8"/>
      </g>
     </g>
     <g id="text_1">
      <!-- 1995 -->
      <g transform="translate(130.801877 329.598437)scale(0.1 -0.1)">
       <defs>
        <path id="DejaVuSans-31" d="M 794 531 
L 1825 531 
L 1825 4091 
L 703 3866 
L 703 4441 
L 1819 4666 
L 2450 4666 
L 2450 531 
L 3481 531 
L 3481 0 
L 794 0 
L 794 531 
z
" transform="scale(0.015625)"/>
        <path id="DejaVuSans-39" d="M 703 97 
L 703 672 
Q 941 559 1184 500 
Q 1428 441 1663 441 
Q 2288 441 2617 861 
Q 2947 1281 2994 2138 
Q 2813 1869 2534 1725 
Q 2256 1581 1919 1581 
Q 1219 1581 811 2004 
Q 403 2428 403 3163 
Q 403 3881 828 4315 
Q 1253 4750 1959 4750 
Q 2769 4750 3195 4129 
Q 3622 3509 3622 2328 
Q 3622 1225 3098 567 
Q 2575 -91 1691 -91 
Q 1453 -91 1209 -44 
Q 966 3 703 97 
z
M 1959 2075 
Q 2384 2075 2632 2365 
Q 2881 2656 2881 3163 
Q 2881 3666 2632 3958 
Q 2384 4250 1959 4250 
Q 1534 4250 1286 3958 
Q 1038 3666 1038 3163 
Q 1038 2656 1286 2365 
Q 1534 2075 1959 2075 
z
" transform="scale(0.015625)"/>
        <path id="DejaVuSans-35" d="M 691 4666 
L 3169 4666 
L 3169 4134 
L 1269 4134 
L 1269 2991 
Q 1406 3038 1543 3061 
Q 1681 3084 1819 3084 
Q 2600 3084 3056 2656 
Q 3513 2228 3513 1497 
Q 3513 744 3044 326 
Q 2575 -91 1722 -91 
Q 1428 -91 1123 -41 
Q 819 9 494 109 
L 494 744 
Q 775 591 1075 516 
Q 1375 441 1709 441 
Q 2250 441 2565 725 
Q 2881 1009 2881 1497 
Q 2881 1984 2565 2268 
Q 2250 2553 1709 2553 
Q 1456 2553 1204 2497 
Q 953 2441 691 2322 
L 691 4666 
z
" transform="scale(0.015625)"/>
       </defs>
       <use xlink:href="#DejaVuSans-31"/>
       <use xlink:href="#DejaVuSans-39" x="63.623047"/>
       <use xlink:href="#DejaVuSans-39" x="127.246094"/>
       <use xlink:href="#DejaVuSans-35" x="190.869141"/>
      </g>
     </g>
    </g>
    <g id="xtick_2">
     <g id="line2d_3">
      <path d="M 242.775889 315 
L 242.775889 43.2 
" clip-path="url(#pb21525036c)" style="fill: none; stroke-dasharray: 2.59,1.12; stroke-dashoffset: 0; stroke: #b0b0b0; stroke-width: 0.7"/>
     </g>
     <g id="line2d_4">
      <g>
       <use xlink:href="#ma8f74c8828" x="242.775889" y="315" style="stroke: #000000; stroke-width: 0.8"/>
      </g>
     </g>
     <g id="text_2">
      <!-- 2000 -->
      <g transform="translate(230.050889 329.598437)scale(0.1 -0.1)">
       <defs>
        <path id="DejaVuSans-32" d="M 1228 531 
L 3431 531 
L 3431 0 
L 469 0 
L 469 531 
Q 828 903 1448 1529 
Q 2069 2156 2228 2338 
Q 2531 2678 2651 2914 
Q 2772 3150 2772 3378 
Q 2772 3750 2511 3984 
Q 2250 4219 1831 4219 
Q 1534 4219 1204 4116 
Q 875 4013 500 3803 
L 500 4441 
Q 881 4594 1212 4672 
Q 1544 4750 1819 4750 
Q 2544 4750 2975 4387 
Q 3406 4025 3406 3419 
Q 3406 3131 3298 2873 
Q 3191 2616 2906 2266 
Q 2828 2175 2409 1742 
Q 1991 1309 1228 531 
z
" transform="scale(0.015625)"/>
        <path id="DejaVuSans-30" d="M 2034 4250 
Q 1547 4250 1301 3770 
Q 1056 3291 1056 2328 
Q 1056 1369 1301 889 
Q 1547 409 2034 409 
Q 2525 409 2770 889 
Q 3016 1369 3016 2328 
Q 3016 3291 2770 3770 
Q 2525 4250 2034 4250 
z
M 2034 4750 
Q 2819 4750 3233 4129 
Q 3647 3509 3647 2328 
Q 3647 1150 3233 529 
Q 2819 -91 2034 -91 
Q 1250 -91 836 529 
Q 422 1150 422 2328 
Q 422 3509 836 4129 
Q 1250 4750 2034 4750 
z
" transform="scale(0.015625)"/>
       </defs>
       <use xlink:href="#DejaVuSans-32"/>
       <use xlink:href="#DejaVuSans-30" x="63.623047"/>
       <use xlink:href="#DejaVuSans-30" x="127.246094"/>
       <use xlink:href="#DejaVuSans-30" x="190.869141"/>
      </g>
     </g>
    </g>
    <g id="xtick_3">
     <g id="line2d_5">
      <path d="M 342.024901 315 
L 342.024901 43.2 
" clip-path="url(#pb21525036c)" style="fill: none; stroke-dasharray: 2.59,1.12; stroke-dashoffset: 0; stroke: #b0b0b0; stroke-width: 0.7"/>
     </g>
     <g id="line2d_6">
      <g>
       <use xlink:href="#ma8f74c8828" x="342.024901" y="315" style="stroke: #000000; stroke-width: 0.8"/>
      </g>
     </g>
     <g id="text_3">
      <!-- 2005 -->
      <g transform="translate(329.299901 329.598437)scale(0.1 -0.1)">
       <use xlink:href="#DejaVuSans-32"/>
       <use xlink:href="#DejaVuSans-30" x="63.623047"/>
       <use xlink:href="#DejaVuSans-30" x="127.246094"/>
       <use xlink:href="#DejaVuSans-35" x="190.869141"/>
      </g>
     </g>
    </g>
    <g id="xtick_4">
     <g id="line2d_7">
      <path d="M 441.273913 315 
L 441.273913 43.2 
" clip-path="url(#pb21525036c)" style="fill: none; stroke-dasharray: 2.59,1.12; stroke-dashoffset: 0; stroke: #b0b0b0; stroke-width: 0.7"/>
     </g>
     <g id="line2d_8">
      <g>
       <use xlink:href="#ma8f74c8828" x="441.273913" y="315" style="stroke: #000000; stroke-width: 0.8"/>
      </g>
     </g>
     <g id="text_4">
      <!-- 2010 -->
      <g transform="translate(428.548913 329.598437)scale(0.1 -0.1)">
       <use xlink:href="#DejaVuSans-32"/>
       <use xlink:href="#DejaVuSans-30" x="63.623047"/>
       <use xlink:href="#DejaVuSans-31" x="127.246094"/>
       <use xlink:href="#DejaVuSans-30" x="190.869141"/>
      </g>
     </g>
    </g>
    <g id="xtick_5">
     <g id="line2d_9">
      <path d="M 540.522925 315 
L 540.522925 43.2 
" clip-path="url(#pb21525036c)" style="fill: none; stroke-dasharray: 2.59,1.12; stroke-dashoffset: 0; stroke: #b0b0b0; stroke-width: 0.7"/>
     </g>
     <g id="line2d_10">
      <g>
       <use xlink:href="#ma8f74c8828" x="540.522925" y="315" style="stroke: #000000; stroke-width: 0.8"/>
      </g>
     </g>
     <g id="text_5">
      <!-- 2015 -->
      <g transform="translate(527.797925 329.598437)scale(0.1 -0.1)">
       <use xlink:href="#DejaVuSans-32"/>
       <use xlink:href="#DejaVuSans-30" x="63.623047"/>
       <use xlink:href="#DejaVuSans-31" x="127.246094"/>
       <use xlink:href="#DejaVuSans-35" x="190.869141"/>
      </g>
     </g>
    </g>
   </g>
   <g id="matplotlib.axis_2">
    <g id="ytick_1">
     <g id="line2d_11">
      <path d="M 81 314.439527 
L 583.2 314.439527 
" clip-path="url(#pb21525036c)" style="fill: none; stroke-dasharray: 2.59,1.12; stroke-dashoffset: 0; stroke: #b0b0b0; stroke-width: 0.7"/>
     </g>
     <g id="line2d_12">
      <defs>
       <path id="m5322dfc7e5" d="M 0 0 
L -3.5 0 
" style="stroke: #000000; stroke-width: 0.8"/>
      </defs>
      <g>
       <use xlink:href="#m5322dfc7e5" x="81" y="314.439527" style="stroke: #000000; stroke-width: 0.8"/>
      </g>
     </g>
     <g id="text_6">
      <!-- 2000 -->
      <g transform="translate(48.55 318.238745)scale(0.1 -0.1)">
       <use xlink:href="#DejaVuSans-32"/>
       <use xlink:href="#DejaVuSans-30" x="63.623047"/>
       <use xlink:href="#DejaVuSans-30" x="127.246094"/>
       <use xlink:href="#DejaVuSans-30" x="190.869141"/>
      </g>
     </g>
    </g>
    <g id="ytick_2">
     <g id="line2d_13">
      <path d="M 81 271.604163 
L 583.2 271.604163 
" clip-path="url(#pb21525036c)" style="fill: none; stroke-dasharray: 2.59,1.12; stroke-dashoffset: 0; stroke: #b0b0b0; stroke-width: 0.7"/>
     </g>
     <g id="line2d_14">
      <g>
       <use xlink:href="#m5322dfc7e5" x="81" y="271.604163" style="stroke: #000000; stroke-width: 0.8"/>
      </g>
     </g>
     <g id="text_7">
      <!-- 2200 -->
      <g transform="translate(48.55 275.403382)scale(0.1 -0.1)">
       <use xlink:href="#DejaVuSans-32"/>
       <use xlink:href="#DejaVuSans-32" x="63.623047"/>
       <use xlink:href="#DejaVuSans-30" x="127.246094"/>
       <use xlink:href="#DejaVuSans-30" x="190.869141"/>
      </g>
     </g>
    </g>
    <g id="ytick_3">
     <g id="line2d_15">
      <path d="M 81 228.768799 
L 583.2 228.768799 
" clip-path="url(#pb21525036c)" style="fill: none; stroke-dasharray: 2.59,1.12; stroke-dashoffset: 0; stroke: #b0b0b0; stroke-width: 0.7"/>
     </g>
     <g id="line2d_16">
      <g>
       <use xlink:href="#m5322dfc7e5" x="81" y="228.768799" style="stroke: #000000; stroke-width: 0.8"/>
      </g>
     </g>
     <g id="text_8">
      <!-- 2400 -->
      <g transform="translate(48.55 232.568018)scale(0.1 -0.1)">
       <defs>
        <path id="DejaVuSans-34" d="M 2419 4116 
L 825 1625 
L 2419 1625 
L 2419 4116 
z
M 2253 4666 
L 3047 4666 
L 3047 1625 
L 3713 1625 
L 3713 1100 
L 3047 1100 
L 3047 0 
L 2419 0 
L 2419 1100 
L 313 1100 
L 313 1709 
L 2253 4666 
z
" transform="scale(0.015625)"/>
       </defs>
       <use xlink:href="#DejaVuSans-32"/>
       <use xlink:href="#DejaVuSans-34" x="63.623047"/>
       <use xlink:href="#DejaVuSans-30" x="127.246094"/>
       <use xlink:href="#DejaVuSans-30" x="190.869141"/>
      </g>
     </g>
    </g>
    <g id="ytick_4">
     <g id="line2d_17">
      <path d="M 81 185.933436 
L 583.2 185.933436 
" clip-path="url(#pb21525036c)" style="fill: none; stroke-dasharray: 2.59,1.12; stroke-dashoffset: 0; stroke: #b0b0b0; stroke-width: 0.7"/>
     </g>
     <g id="line2d_18">
      <g>
       <use xlink:href="#m5322dfc7e5" x="81" y="185.933436" style="stroke: #000000; stroke-width: 0.8"/>
      </g>
     </g>
     <g id="text_9">
      <!-- 2600 -->
      <g transform="translate(48.55 189.732655)scale(0.1 -0.1)">
       <defs>
        <path id="DejaVuSans-36" d="M 2113 2584 
Q 1688 2584 1439 2293 
Q 1191 2003 1191 1497 
Q 1191 994 1439 701 
Q 1688 409 2113 409 
Q 2538 409 2786 701 
Q 3034 994 3034 1497 
Q 3034 2003 2786 2293 
Q 2538 2584 2113 2584 
z
M 3366 4563 
L 3366 3988 
Q 3128 4100 2886 4159 
Q 2644 4219 2406 4219 
Q 1781 4219 1451 3797 
Q 1122 3375 1075 2522 
Q 1259 2794 1537 2939 
Q 1816 3084 2150 3084 
Q 2853 3084 3261 2657 
Q 3669 2231 3669 1497 
Q 3669 778 3244 343 
Q 2819 -91 2113 -91 
Q 1303 -91 875 529 
Q 447 1150 447 2328 
Q 447 3434 972 4092 
Q 1497 4750 2381 4750 
Q 2619 4750 2861 4703 
Q 3103 4656 3366 4563 
z
" transform="scale(0.015625)"/>
       </defs>
       <use xlink:href="#DejaVuSans-32"/>
       <use xlink:href="#DejaVuSans-36" x="63.623047"/>
       <use xlink:href="#DejaVuSans-30" x="127.246094"/>
       <use xlink:href="#DejaVuSans-30" x="190.869141"/>
      </g>
     </g>
    </g>
    <g id="ytick_5">
     <g id="line2d_19">
      <path d="M 81 143.098072 
L 583.2 143.098072 
" clip-path="url(#pb21525036c)" style="fill: none; stroke-dasharray: 2.59,1.12; stroke-dashoffset: 0; stroke: #b0b0b0; stroke-width: 0.7"/>
     </g>
     <g id="line2d_20">
      <g>
       <use xlink:href="#m5322dfc7e5" x="81" y="143.098072" style="stroke: #000000; stroke-width: 0.8"/>
      </g>
     </g>
     <g id="text_10">
      <!-- 2800 -->
      <g transform="translate(48.55 146.897291)scale(0.1 -0.1)">
       <defs>
        <path id="DejaVuSans-38" d="M 2034 2216 
Q 1584 2216 1326 1975 
Q 1069 1734 1069 1313 
Q 1069 891 1326 650 
Q 1584 409 2034 409 
Q 2484 409 2743 651 
Q 3003 894 3003 1313 
Q 3003 1734 2745 1975 
Q 2488 2216 2034 2216 
z
M 1403 2484 
Q 997 2584 770 2862 
Q 544 3141 544 3541 
Q 544 4100 942 4425 
Q 1341 4750 2034 4750 
Q 2731 4750 3128 4425 
Q 3525 4100 3525 3541 
Q 3525 3141 3298 2862 
Q 3072 2584 2669 2484 
Q 3125 2378 3379 2068 
Q 3634 1759 3634 1313 
Q 3634 634 3220 271 
Q 2806 -91 2034 -91 
Q 1263 -91 848 271 
Q 434 634 434 1313 
Q 434 1759 690 2068 
Q 947 2378 1403 2484 
z
M 1172 3481 
Q 1172 3119 1398 2916 
Q 1625 2713 2034 2713 
Q 2441 2713 2670 2916 
Q 2900 3119 2900 3481 
Q 2900 3844 2670 4047 
Q 2441 4250 2034 4250 
Q 1625 4250 1398 4047 
Q 1172 3844 1172 3481 
z
" transform="scale(0.015625)"/>
       </defs>
       <use xlink:href="#DejaVuSans-32"/>
       <use xlink:href="#DejaVuSans-38" x="63.623047"/>
       <use xlink:href="#DejaVuSans-30" x="127.246094"/>
       <use xlink:href="#DejaVuSans-30" x="190.869141"/>
      </g>
     </g>
    </g>
    <g id="ytick_6">
     <g id="line2d_21">
      <path d="M 81 100.262709 
L 583.2 100.262709 
" clip-path="url(#pb21525036c)" style="fill: none; stroke-dasharray: 2.59,1.12; stroke-dashoffset: 0; stroke: #b0b0b0; stroke-width: 0.7"/>
     </g>
     <g id="line2d_22">
      <g>
       <use xlink:href="#m5322dfc7e5" x="81" y="100.262709" style="stroke: #000000; stroke-width: 0.8"/>
      </g>
     </g>
     <g id="text_11">
      <!-- 3000 -->
      <g transform="translate(48.55 104.061927)scale(0.1 -0.1)">
       <defs>
        <path id="DejaVuSans-33" d="M 2597 2516 
Q 3050 2419 3304 2112 
Q 3559 1806 3559 1356 
Q 3559 666 3084 287 
Q 2609 -91 1734 -91 
Q 1441 -91 1130 -33 
Q 819 25 488 141 
L 488 750 
Q 750 597 1062 519 
Q 1375 441 1716 441 
Q 2309 441 2620 675 
Q 2931 909 2931 1356 
Q 2931 1769 2642 2001 
Q 2353 2234 1838 2234 
L 1294 2234 
L 1294 2753 
L 1863 2753 
Q 2328 2753 2575 2939 
Q 2822 3125 2822 3475 
Q 2822 3834 2567 4026 
Q 2313 4219 1838 4219 
Q 1578 4219 1281 4162 
Q 984 4106 628 3988 
L 628 4550 
Q 988 4650 1302 4700 
Q 1616 4750 1894 4750 
Q 2613 4750 3031 4423 
Q 3450 4097 3450 3541 
Q 3450 3153 3228 2886 
Q 3006 2619 2597 2516 
z
" transform="scale(0.015625)"/>
       </defs>
       <use xlink:href="#DejaVuSans-33"/>
       <use xlink:href="#DejaVuSans-30" x="63.623047"/>
       <use xlink:href="#DejaVuSans-30" x="127.246094"/>
       <use xlink:href="#DejaVuSans-30" x="190.869141"/>
      </g>
     </g>
    </g>
    <g id="ytick_7">
     <g id="line2d_23">
      <path d="M 81 57.427345 
L 583.2 57.427345 
" clip-path="url(#pb21525036c)" style="fill: none; stroke-dasharray: 2.59,1.12; stroke-dashoffset: 0; stroke: #b0b0b0; stroke-width: 0.7"/>
     </g>
     <g id="line2d_24">
      <g>
       <use xlink:href="#m5322dfc7e5" x="81" y="57.427345" style="stroke: #000000; stroke-width: 0.8"/>
      </g>
     </g>
     <g id="text_12">
      <!-- 3200 -->
      <g transform="translate(48.55 61.226564)scale(0.1 -0.1)">
       <use xlink:href="#DejaVuSans-33"/>
       <use xlink:href="#DejaVuSans-32" x="63.623047"/>
       <use xlink:href="#DejaVuSans-30" x="127.246094"/>
       <use xlink:href="#DejaVuSans-30" x="190.869141"/>
      </g>
     </g>
    </g>
   </g>
   <g id="line2d_25">
    <path d="M 103.827273 216.156726 
L 123.677075 148.040912 
L 143.526877 179.699635 
L 163.37668 117.245671 
L 183.226482 187.664743 
L 203.076285 268.104344 
L 222.926087 106.761216 
L 242.775889 223.37987 
L 262.625692 190.014997 
L 282.475494 270.673943 
L 302.325296 115.122646 
L 322.175099 100.098281 
L 342.024901 238.087688 
L 361.874704 237.525543 
L 381.724506 155.539582 
L 401.574308 122.75816 
L 421.424111 190.009987 
L 441.273913 80.306933 
L 461.123715 127.254682 
L 480.973518 248.588564 
L 500.82332 119.084214 
L 520.673123 271.530899 
L 540.522925 271.654728 
L 560.372727 127.873952 
" clip-path="url(#pb21525036c)" style="fill: none; stroke: #1f77b4; stroke-width: 1.5; stroke-linecap: square"/>
    <defs>
     <path id="m0142938215" d="M 0 3 
C 0.795609 3 1.55874 2.683901 2.12132 2.12132 
C 2.683901 1.55874 3 0.795609 3 0 
C 3 -0.795609 2.683901 -1.55874 2.12132 -2.12132 
C 1.55874 -2.683901 0.795609 -3 0 -3 
C -0.795609 -3 -1.55874 -2.683901 -2.12132 -2.12132 
C -2.683901 -1.55874 -3 -0.795609 -3 0 
C -3 0.795609 -2.683901 1.55874 -2.12132 2.12132 
C -1.55874 2.683901 -0.795609 3 0 3 
z
" style="stroke: #1f77b4"/>
    </defs>
    <g clip-path="url(#pb21525036c)">
     <use xlink:href="#m0142938215" x="103.827273" y="216.156726" style="fill: #1f77b4; stroke: #1f77b4"/>
     <use xlink:href="#m0142938215" x="123.677075" y="148.040912" style="fill: #1f77b4; stroke: #1f77b4"/>
     <use xlink:href="#m0142938215" x="143.526877" y="179.699635" style="fill: #1f77b4; stroke: #1f77b4"/>
     <use xlink:href="#m0142938215" x="163.37668" y="117.245671" style="fill: #1f77b4; stroke: #1f77b4"/>
     <use xlink:href="#m0142938215" x="183.226482" y="187.664743" style="fill: #1f77b4; stroke: #1f77b4"/>
     <use xlink:href="#m0142938215" x="203.076285" y="268.104344" style="fill: #1f77b4; stroke: #1f77b4"/>
     <use xlink:href="#m0142938215" x="222.926087" y="106.761216" style="fill: #1f77b4; stroke: #1f77b4"/>
     <use xlink:href="#m0142938215" x="242.775889" y="223.37987" style="fill: #1f77b4; stroke: #1f77b4"/>
     <use xlink:href="#m0142938215" x="262.625692" y="190.014997" style="fill: #1f77b4; stroke: #1f77b4"/>
     <use xlink:href="#m0142938215" x="282.475494" y="270.673943" style="fill: #1f77b4; stroke: #1f77b4"/>
     <use xlink:href="#m0142938215" x="302.325296" y="115.122646" style="fill: #1f77b4; stroke: #1f77b4"/>
     <use xlink:href="#m0142938215" x="322.175099" y="100.098281" style="fill: #1f77b4; stroke: #1f77b4"/>
     <use xlink:href="#m0142938215" x="342.024901" y="238.087688" style="fill: #1f77b4; stroke: #1f77b4"/>
     <use xlink:href="#m0142938215" x="361.874704" y="237.525543" style="fill: #1f77b4; stroke: #1f77b4"/>
     <use xlink:href="#m0142938215" x="381.724506" y="155.539582" style="fill: #1f77b4; stroke: #1f77b4"/>
     <use xlink:href="#m0142938215" x="401.574308" y="122.75816" style="fill: #1f77b4; stroke: #1f77b4"/>
     <use xlink:href="#m0142938215" x="421.424111" y="190.009987" style="fill: #1f77b4; stroke: #1f77b4"/>
     <use xlink:href="#m0142938215" x="441.273913" y="80.306933" style="fill: #1f77b4; stroke: #1f77b4"/>
     <use xlink:href="#m0142938215" x="461.123715" y="127.254682" style="fill: #1f77b4; stroke: #1f77b4"/>
     <use xlink:href="#m0142938215" x="480.973518" y="248.588564" style="fill: #1f77b4; stroke: #1f77b4"/>
     <use xlink:href="#m0142938215" x="500.82332" y="119.084214" style="fill: #1f77b4; stroke: #1f77b4"/>
     <use xlink:href="#m0142938215" x="520.673123" y="271.530899" style="fill: #1f77b4; stroke: #1f77b4"/>
     <use xlink:href="#m0142938215" x="540.522925" y="271.654728" style="fill: #1f77b4; stroke: #1f77b4"/>
     <use xlink:href="#m0142938215" x="560.372727" y="127.873952" style="fill: #1f77b4; stroke: #1f77b4"/>
    </g>
   </g>
   <g id="line2d_26">
    <path d="M 103.827273 216.156726 
L 123.677075 148.040912 
L 143.526877 179.699635 
L 163.37668 117.245671 
L 183.226482 187.664743 
L 203.076285 268.104344 
L 222.926087 106.761216 
L 242.775889 223.37987 
L 262.625692 190.014997 
L 282.475494 270.673943 
L 302.325296 115.122646 
L 322.175099 100.098281 
L 342.024901 238.087688 
L 361.874704 237.525543 
L 381.724506 155.539582 
L 401.574308 122.75816 
L 421.424111 190.009987 
L 441.273913 80.306933 
L 461.123715 127.254682 
L 480.973518 248.588564 
L 500.82332 119.084214 
L 520.673123 271.530899 
L 540.522925 271.654728 
L 560.372727 127.873952 
" clip-path="url(#pb21525036c)" style="fill: none; stroke: #ff7f0e; stroke-width: 1.5; stroke-linecap: square"/>
    <defs>
     <path id="m02fd01110d" d="M 0 3 
C 0.795609 3 1.55874 2.683901 2.12132 2.12132 
C 2.683901 1.55874 3 0.795609 3 0 
C 3 -0.795609 2.683901 -1.55874 2.12132 -2.12132 
C 1.55874 -2.683901 0.795609 -3 0 -3 
C -0.795609 -3 -1.55874 -2.683901 -2.12132 -2.12132 
C -2.683901 -1.55874 -3 -0.795609 -3 0 
C -3 0.795609 -2.683901 1.55874 -2.12132 2.12132 
C -1.55874 2.683901 -0.795609 3 0 3 
z
" style="stroke: #ff7f0e"/>
    </defs>
    <g clip-path="url(#pb21525036c)">
     <use xlink:href="#m02fd01110d" x="103.827273" y="216.156726" style="fill: #ff7f0e; stroke: #ff7f0e"/>
     <use xlink:href="#m02fd01110d" x="123.677075" y="148.040912" style="fill: #ff7f0e; stroke: #ff7f0e"/>
     <use xlink:href="#m02fd01110d" x="143.526877" y="179.699635" style="fill: #ff7f0e; stroke: #ff7f0e"/>
     <use xlink:href="#m02fd01110d" x="163.37668" y="117.245671" style="fill: #ff7f0e; stroke: #ff7f0e"/>
     <use xlink:href="#m02fd01110d" x="183.226482" y="187.664743" style="fill: #ff7f0e; stroke: #ff7f0e"/>
     <use xlink:href="#m02fd01110d" x="203.076285" y="268.104344" style="fill: #ff7f0e; stroke: #ff7f0e"/>
     <use xlink:href="#m02fd01110d" x="222.926087" y="106.761216" style="fill: #ff7f0e; stroke: #ff7f0e"/>
     <use xlink:href="#m02fd01110d" x="242.775889" y="223.37987" style="fill: #ff7f0e; stroke: #ff7f0e"/>
     <use xlink:href="#m02fd01110d" x="262.625692" y="190.014997" style="fill: #ff7f0e; stroke: #ff7f0e"/>
     <use xlink:href="#m02fd01110d" x="282.475494" y="270.673943" style="fill: #ff7f0e; stroke: #ff7f0e"/>
     <use xlink:href="#m02fd01110d" x="302.325296" y="115.122646" style="fill: #ff7f0e; stroke: #ff7f0e"/>
     <use xlink:href="#m02fd01110d" x="322.175099" y="100.098281" style="fill: #ff7f0e; stroke: #ff7f0e"/>
     <use xlink:href="#m02fd01110d" x="342.024901" y="238.087688" style="fill: #ff7f0e; stroke: #ff7f0e"/>
     <use xlink:href="#m02fd01110d" x="361.874704" y="237.525543" style="fill: #ff7f0e; stroke: #ff7f0e"/>
     <use xlink:href="#m02fd01110d" x="381.724506" y="155.539582" style="fill: #ff7f0e; stroke: #ff7f0e"/>
     <use xlink:href="#m02fd01110d" x="401.574308" y="122.75816" style="fill: #ff7f0e; stroke: #ff7f0e"/>
     <use xlink:href="#m02fd01110d" x="421.424111" y="190.009987" style="fill: #ff7f0e; stroke: #ff7f0e"/>
     <use xlink:href="#m02fd01110d" x="441.273913" y="80.306933" style="fill: #ff7f0e; stroke: #ff7f0e"/>
     <use xlink:href="#m02fd01110d" x="461.123715" y="127.254682" style="fill: #ff7f0e; stroke: #ff7f0e"/>
     <use xlink:href="#m02fd01110d" x="480.973518" y="248.588564" style="fill: #ff7f0e; stroke: #ff7f0e"/>
     <use xlink:href="#m02fd01110d" x="500.82332" y="119.084214" style="fill: #ff7f0e; stroke: #ff7f0e"/>
     <use xlink:href="#m02fd01110d" x="520.673123" y="271.530899" style="fill: #ff7f0e; stroke: #ff7f0e"/>
     <use xlink:href="#m02fd01110d" x="540.522925" y="271.654728" style="fill: #ff7f0e; stroke: #ff7f0e"/>
     <use xlink:href="#m02fd01110d" x="560.372727" y="127.873952" style="fill: #ff7f0e; stroke: #ff7f0e"/>
    </g>
   </g>
   <g id="line2d_27">
    <path d="M 103.827273 183.792781 
L 123.677075 169.270703 
L 143.526877 187.603267 
L 163.37668 124.772557 
L 183.226482 196.794759 
L 203.076285 213.529078 
L 222.926087 137.052384 
L 242.775889 245.160386 
L 262.625692 165.737661 
L 282.475494 279.31769 
L 302.325296 83.214859 
L 322.175099 170.845637 
L 342.024901 204.326618 
L 361.874704 302.645455 
L 381.724506 170.784887 
L 401.574308 106.578932 
L 421.424111 222.749362 
L 441.273913 65.370475 
L 461.123715 112.666001 
L 480.973518 205.530421 
L 500.82332 112.738522 
L 520.673123 251.947186 
L 540.522925 260.943188 
L 560.372727 55.554545 
" clip-path="url(#pb21525036c)" style="fill: none; stroke: #2ca02c; stroke-width: 1.5; stroke-linecap: square"/>
    <defs>
     <path id="m5dca707076" d="M 0 3 
C 0.795609 3 1.55874 2.683901 2.12132 2.12132 
C 2.683901 1.55874 3 0.795609 3 0 
C 3 -0.795609 2.683901 -1.55874 2.12132 -2.12132 
C 1.55874 -2.683901 0.795609 -3 0 -3 
C -0.795609 -3 -1.55874 -2.683901 -2.12132 -2.12132 
C -2.683901 -1.55874 -3 -0.795609 -3 0 
C -3 0.795609 -2.683901 1.55874 -2.12132 2.12132 
C -1.55874 2.683901 -0.795609 3 0 3 
z
" style="stroke: #2ca02c"/>
    </defs>
    <g clip-path="url(#pb21525036c)">
     <use xlink:href="#m5dca707076" x="103.827273" y="183.792781" style="fill: #2ca02c; stroke: #2ca02c"/>
     <use xlink:href="#m5dca707076" x="123.677075" y="169.270703" style="fill: #2ca02c; stroke: #2ca02c"/>
     <use xlink:href="#m5dca707076" x="143.526877" y="187.603267" style="fill: #2ca02c; stroke: #2ca02c"/>
     <use xlink:href="#m5dca707076" x="163.37668" y="124.772557" style="fill: #2ca02c; stroke: #2ca02c"/>
     <use xlink:href="#m5dca707076" x="183.226482" y="196.794759" style="fill: #2ca02c; stroke: #2ca02c"/>
     <use xlink:href="#m5dca707076" x="203.076285" y="213.529078" style="fill: #2ca02c; stroke: #2ca02c"/>
     <use xlink:href="#m5dca707076" x="222.926087" y="137.052384" style="fill: #2ca02c; stroke: #2ca02c"/>
     <use xlink:href="#m5dca707076" x="242.775889" y="245.160386" style="fill: #2ca02c; stroke: #2ca02c"/>
     <use xlink:href="#m5dca707076" x="262.625692" y="165.737661" style="fill: #2ca02c; stroke: #2ca02c"/>
     <use xlink:href="#m5dca707076" x="282.475494" y="279.31769" style="fill: #2ca02c; stroke: #2ca02c"/>
     <use xlink:href="#m5dca707076" x="302.325296" y="83.214859" style="fill: #2ca02c; stroke: #2ca02c"/>
     <use xlink:href="#m5dca707076" x="322.175099" y="170.845637" style="fill: #2ca02c; stroke: #2ca02c"/>
     <use xlink:href="#m5dca707076" x="342.024901" y="204.326618" style="fill: #2ca02c; stroke: #2ca02c"/>
     <use xlink:href="#m5dca707076" x="361.874704" y="302.645455" style="fill: #2ca02c; stroke: #2ca02c"/>
     <use xlink:href="#m5dca707076" x="381.724506" y="170.784887" style="fill: #2ca02c; stroke: #2ca02c"/>
     <use xlink:href="#m5dca707076" x="401.574308" y="106.578932" style="fill: #2ca02c; stroke: #2ca02c"/>
     <use xlink:href="#m5dca707076" x="421.424111" y="222.749362" style="fill: #2ca02c; stroke: #2ca02c"/>
     <use xlink:href="#m5dca707076" x="441.273913" y="65.370475" style="fill: #2ca02c; stroke: #2ca02c"/>
     <use xlink:href="#m5dca707076" x="461.123715" y="112.666001" style="fill: #2ca02c; stroke: #2ca02c"/>
     <use xlink:href="#m5dca707076" x="480.973518" y="205.530421" style="fill: #2ca02c; stroke: #2ca02c"/>
     <use xlink:href="#m5dca707076" x="500.82332" y="112.738522" style="fill: #2ca02c; stroke: #2ca02c"/>
     <use xlink:href="#m5dca707076" x="520.673123" y="251.947186" style="fill: #2ca02c; stroke: #2ca02c"/>
     <use xlink:href="#m5dca707076" x="540.522925" y="260.943188" style="fill: #2ca02c; stroke: #2ca02c"/>
     <use xlink:href="#m5dca707076" x="560.372727" y="55.554545" style="fill: #2ca02c; stroke: #2ca02c"/>
    </g>
   </g>
   <g id="patch_3">
    <path d="M 81 315 
L 81 43.2 
" style="fill: none; stroke: #000000; stroke-width: 0.8; stroke-linejoin: miter; stroke-linecap: square"/>
   </g>
   <g id="patch_4">
    <path d="M 583.2 315 
L 583.2 43.2 
" style="fill: none; stroke: #000000; stroke-width: 0.8; stroke-linejoin: miter; stroke-linecap: square"/>
   </g>
   <g id="patch_5">
    <path d="M 81 315 
L 583.2 315 
" style="fill: none; stroke: #000000; stroke-width: 0.8; stroke-linejoin: miter; stroke-linecap: square"/>
   </g>
   <g id="patch_6">
    <path d="M 81 43.2 
L 583.2 43.2 
" style="fill: none; stroke: #000000; stroke-width: 0.8; stroke-linejoin: miter; stroke-linecap: square"/>
   </g>
   <g id="legend_1">
    <g id="patch_7">
     <path d="M 88 95.234375 
L 162.625 95.234375 
Q 164.625 95.234375 164.625 93.234375 
L 164.625 50.2 
Q 164.625 48.2 162.625 48.2 
L 88 48.2 
Q 86 48.2 86 50.2 
L 86 93.234375 
Q 86 95.234375 88 95.234375 
z
" style="fill: #ffffff; opacity: 0.8; stroke: #cccccc; stroke-linejoin: miter"/>
    </g>
    <g id="line2d_28">
     <path d="M 90 56.298437 
L 100 56.298437 
L 110 56.298437 
" style="fill: none; stroke: #1f77b4; stroke-width: 1.5; stroke-linecap: square"/>
     <g>
      <use xlink:href="#m0142938215" x="100" y="56.298437" style="fill: #1f77b4; stroke: #1f77b4"/>
     </g>
    </g>
    <g id="text_13">
     <!-- MME -->
     <g transform="translate(118 59.798437)scale(0.1 -0.1)">
      <defs>
       <path id="DejaVuSans-4d" d="M 628 4666 
L 1569 4666 
L 2759 1491 
L 3956 4666 
L 4897 4666 
L 4897 0 
L 4281 0 
L 4281 4097 
L 3078 897 
L 2444 897 
L 1241 4097 
L 1241 0 
L 628 0 
L 628 4666 
z
" transform="scale(0.015625)"/>
       <path id="DejaVuSans-45" d="M 628 4666 
L 3578 4666 
L 3578 4134 
L 1259 4134 
L 1259 2753 
L 3481 2753 
L 3481 2222 
L 1259 2222 
L 1259 531 
L 3634 531 
L 3634 0 
L 628 0 
L 628 4666 
z
" transform="scale(0.015625)"/>
      </defs>
      <use xlink:href="#DejaVuSans-4d"/>
      <use xlink:href="#DejaVuSans-4d" x="86.279297"/>
      <use xlink:href="#DejaVuSans-45" x="172.558594"/>
     </g>
    </g>
    <g id="line2d_29">
     <path d="M 90 70.976562 
L 100 70.976562 
L 110 70.976562 
" style="fill: none; stroke: #ff7f0e; stroke-width: 1.5; stroke-linecap: square"/>
     <g>
      <use xlink:href="#m02fd01110d" x="100" y="70.976562" style="fill: #ff7f0e; stroke: #ff7f0e"/>
     </g>
    </g>
    <g id="text_14">
     <!-- CLIMATE -->
     <g transform="translate(118 74.476562)scale(0.1 -0.1)">
      <defs>
       <path id="DejaVuSans-43" d="M 4122 4306 
L 4122 3641 
Q 3803 3938 3442 4084 
Q 3081 4231 2675 4231 
Q 1875 4231 1450 3742 
Q 1025 3253 1025 2328 
Q 1025 1406 1450 917 
Q 1875 428 2675 428 
Q 3081 428 3442 575 
Q 3803 722 4122 1019 
L 4122 359 
Q 3791 134 3420 21 
Q 3050 -91 2638 -91 
Q 1578 -91 968 557 
Q 359 1206 359 2328 
Q 359 3453 968 4101 
Q 1578 4750 2638 4750 
Q 3056 4750 3426 4639 
Q 3797 4528 4122 4306 
z
" transform="scale(0.015625)"/>
       <path id="DejaVuSans-4c" d="M 628 4666 
L 1259 4666 
L 1259 531 
L 3531 531 
L 3531 0 
L 628 0 
L 628 4666 
z
" transform="scale(0.015625)"/>
       <path id="DejaVuSans-49" d="M 628 4666 
L 1259 4666 
L 1259 0 
L 628 0 
L 628 4666 
z
" transform="scale(0.015625)"/>
       <path id="DejaVuSans-41" d="M 2188 4044 
L 1331 1722 
L 3047 1722 
L 2188 4044 
z
M 1831 4666 
L 2547 4666 
L 4325 0 
L 3669 0 
L 3244 1197 
L 1141 1197 
L 716 0 
L 50 0 
L 1831 4666 
z
" transform="scale(0.015625)"/>
       <path id="DejaVuSans-54" d="M -19 4666 
L 3928 4666 
L 3928 4134 
L 2272 4134 
L 2272 0 
L 1638 0 
L 1638 4134 
L -19 4134 
L -19 4666 
z
" transform="scale(0.015625)"/>
      </defs>
      <use xlink:href="#DejaVuSans-43"/>
      <use xlink:href="#DejaVuSans-4c" x="69.824219"/>
      <use xlink:href="#DejaVuSans-49" x="125.537109"/>
      <use xlink:href="#DejaVuSans-4d" x="155.029297"/>
      <use xlink:href="#DejaVuSans-41" x="241.308594"/>
      <use xlink:href="#DejaVuSans-54" x="301.966797"/>
      <use xlink:href="#DejaVuSans-45" x="363.050781"/>
     </g>
    </g>
    <g id="line2d_30">
     <path d="M 90 85.654687 
L 100 85.654687 
L 110 85.654687 
" style="fill: none; stroke: #2ca02c; stroke-width: 1.5; stroke-linecap: square"/>
     <g>
      <use xlink:href="#m5dca707076" x="100" y="85.654687" style="fill: #2ca02c; stroke: #2ca02c"/>
     </g>
    </g>
    <g id="text_15">
     <!-- OBS -->
     <g transform="translate(118 89.154687)scale(0.1 -0.1)">
      <defs>
       <path id="DejaVuSans-4f" d="M 2522 4238 
Q 1834 4238 1429 3725 
Q 1025 3213 1025 2328 
Q 1025 1447 1429 934 
Q 1834 422 2522 422 
Q 3209 422 3611 934 
Q 4013 1447 4013 2328 
Q 4013 3213 3611 3725 
Q 3209 4238 2522 4238 
z
M 2522 4750 
Q 3503 4750 4090 4092 
Q 4678 3434 4678 2328 
Q 4678 1225 4090 567 
Q 3503 -91 2522 -91 
Q 1538 -91 948 565 
Q 359 1222 359 2328 
Q 359 3434 948 4092 
Q 1538 4750 2522 4750 
z
" transform="scale(0.015625)"/>
       <path id="DejaVuSans-42" d="M 1259 2228 
L 1259 519 
L 2272 519 
Q 2781 519 3026 730 
Q 3272 941 3272 1375 
Q 3272 1813 3026 2020 
Q 2781 2228 2272 2228 
L 1259 2228 
z
M 1259 4147 
L 1259 2741 
L 2194 2741 
Q 2656 2741 2882 2914 
Q 3109 3088 3109 3444 
Q 3109 3797 2882 3972 
Q 2656 4147 2194 4147 
L 1259 4147 
z
M 628 4666 
L 2241 4666 
Q 2963 4666 3353 4366 
Q 3744 4066 3744 3513 
Q 3744 3084 3544 2831 
Q 3344 2578 2956 2516 
Q 3422 2416 3680 2098 
Q 3938 1781 3938 1306 
Q 3938 681 3513 340 
Q 3088 0 2303 0 
L 628 0 
L 628 4666 
z
" transform="scale(0.015625)"/>
       <path id="DejaVuSans-53" d="M 3425 4513 
L 3425 3897 
Q 3066 4069 2747 4153 
Q 2428 4238 2131 4238 
Q 1616 4238 1336 4038 
Q 1056 3838 1056 3469 
Q 1056 3159 1242 3001 
Q 1428 2844 1947 2747 
L 2328 2669 
Q 3034 2534 3370 2195 
Q 3706 1856 3706 1288 
Q 3706 609 3251 259 
Q 2797 -91 1919 -91 
Q 1588 -91 1214 -16 
Q 841 59 441 206 
L 441 856 
Q 825 641 1194 531 
Q 1563 422 1919 422 
Q 2459 422 2753 634 
Q 3047 847 3047 1241 
Q 3047 1584 2836 1778 
Q 2625 1972 2144 2069 
L 1759 2144 
Q 1053 2284 737 2584 
Q 422 2884 422 3419 
Q 422 4038 858 4394 
Q 1294 4750 2059 4750 
Q 2388 4750 2728 4690 
Q 3069 4631 3425 4513 
z
" transform="scale(0.015625)"/>
      </defs>
      <use xlink:href="#DejaVuSans-4f"/>
      <use xlink:href="#DejaVuSans-42" x="78.710938"/>
      <use xlink:href="#DejaVuSans-53" x="145.564453"/>
     </g>
    </g>
   </g>
  </g>
 </g>
 <defs>
  <clipPath id="pb21525036c">
   <rect x="81" y="43.2" width="502.2" height="271.8"/>
  </clipPath>
 </defs>
</svg>
